<?xml version="1.0" encoding="UTF-8" standalone="no"?>
<!-- Created with Inkscape (http://www.inkscape.org/) -->

<svg
   xmlns:dc="http://purl.org/dc/elements/1.1/"
   xmlns:cc="http://creativecommons.org/ns#"
   xmlns:rdf="http://www.w3.org/1999/02/22-rdf-syntax-ns#"
   xmlns:svg="http://www.w3.org/2000/svg"
   xmlns="http://www.w3.org/2000/svg"
   xmlns:sodipodi="http://sodipodi.sourceforge.net/DTD/sodipodi-0.dtd"
   xmlns:inkscape="http://www.inkscape.org/namespaces/inkscape"
   id="svg2"
   version="1.1"
   inkscape:version="0.91 r13725"
   width="225"
   height="150"
   viewBox="0 0 225 150"
   sodipodi:docname="cbh.svg">
  <metadata
     id="metadata8">
    <rdf:RDF>
      <cc:Work
         rdf:about="">
        <dc:format>image/svg+xml</dc:format>
        <dc:type
           rdf:resource="http://purl.org/dc/dcmitype/StillImage" />
        <dc:title></dc:title>
      </cc:Work>
    </rdf:RDF>
  </metadata>
  <defs
     id="defs6" />
  <sodipodi:namedview
     pagecolor="#ffffff"
     bordercolor="#666666"
     borderopacity="1"
     objecttolerance="10"
     gridtolerance="10"
     guidetolerance="10"
     inkscape:pageopacity="0"
     inkscape:pageshadow="2"
     inkscape:window-width="1920"
     inkscape:window-height="1137"
     id="namedview4"
     showgrid="true"
     inkscape:zoom="4.9152"
     inkscape:cx="89.751155"
     inkscape:cy="69.929212"
     inkscape:window-x="-8"
     inkscape:window-y="-8"
     inkscape:window-maximized="1"
     inkscape:current-layer="svg2">
    <inkscape:grid
       type="xygrid"
       id="grid3338"
       enabled="false" />
  </sodipodi:namedview>
  <path
     style="fill:#ffffff"
     d="m 111.39928,99.071276 c -0.007,-0.0222 -0.0179,-0.08636 -0.0247,-0.142562 -0.007,-0.05621 -0.0716,-0.138808 -0.14398,-0.183563 -0.0724,-0.04475 -0.13897,-0.120779 -0.14789,-0.168942 -0.009,-0.04816 -0.27134,-0.07986 -0.58314,-0.07044 -0.50278,0.01519 -0.56692,-0.0047 -0.56692,-0.175716 0,-0.108915 -0.0965,-0.230078 -0.22183,-0.278389 -0.23969,-0.09243 -0.14119,-0.170717 0.29324,-0.233062 0.30156,-0.04328 0.37261,-0.137289 0.23189,-0.306841 -0.103,-0.12411 -0.1718,-0.125027 -0.50702,-0.0068 -0.21331,0.07526 -0.38784,0.09753 -0.38784,0.04948 0,-0.04805 0.0998,-0.101541 0.22184,-0.118869 0.16742,-0.02378 0.21417,-0.08646 0.19062,-0.255531 -0.0172,-0.123213 0.005,-0.214588 0.0493,-0.203053 0.0922,0.02401 0.73115,-0.115045 0.8494,-0.184854 0.1513,-0.08932 -0.14149,-0.309206 -0.35917,-0.269734 -0.1642,0.02978 -0.21957,-0.0076 -0.21957,-0.14823 0,-0.103426 0.0311,-0.168843 0.0691,-0.145373 0.038,0.02347 0.0915,-0.01306 0.11898,-0.08118 0.0372,-0.0922 0.0519,-0.08927 0.0577,0.01146 0.006,0.106853 0.0378,0.1104 0.15051,0.01686 0.0785,-0.06515 0.28925,-0.137929 0.46832,-0.161731 0.17908,-0.0238 0.48088,-0.07298 0.67067,-0.109281 0.1898,-0.0363 0.41163,-0.07698 0.49297,-0.09041 0.0813,-0.01342 0.25881,-0.04517 0.39438,-0.07055 0.73323,-0.13728 1.07795,-0.15569 1.13665,-0.06071 0.0447,0.07232 0.10166,0.07236 0.18868,9.8e-5 0.0686,-0.0569 0.36409,-0.127111 0.65673,-0.156021 0.29264,-0.02891 0.64299,-0.07143 0.77856,-0.09449 0.42002,-0.07144 1.44227,-0.176445 2.76063,-0.283567 0.24402,-0.01983 0.95389,-0.08686 1.57749,-0.148953 0.62361,-0.0621 1.68842,-0.136802 2.36625,-0.16601 1.3363,-0.05758 4.59143,-0.156192 4.83108,-0.14635 0.0813,0.0033 0.32536,-0.0015 0.54227,-0.01067 0.51004,-0.02165 5.55829,-0.02179 5.81702,-1.98e-4 0.10845,0.0091 0.81833,0.01296 1.5775,0.0086 0.75917,-0.0043 1.95708,0.0151 2.66202,0.04314 0.70495,0.02803 2.14688,0.07571 3.2043,0.105946 1.6942,0.04845 2.31695,0.09089 2.31695,0.157906 0,0.01065 0.24401,0.03005 0.54226,0.04311 1.27808,0.05596 1.56499,0.09108 1.54706,0.189416 -0.0104,0.05693 0.13643,0.11038 0.32622,0.118789 0.18979,0.0084 0.42272,0.02057 0.51761,0.02703 0.11289,0.0077 0.17254,0.09317 0.17254,0.247276 0,0.129997 -0.0552,0.229393 -0.12324,0.221835 -0.0678,-0.0075 -0.12324,0.03067 -0.12324,0.0849 0,0.05423 0.1562,0.100778 0.34712,0.103449 0.1909,0.0027 0.41274,0.04636 0.49297,0.09708 0.0802,0.05073 0.19021,0.09312 0.24444,0.09421 0.0542,0.0011 0.0986,0.110471 0.0986,0.243066 0,0.17075 0.0719,0.263705 0.24649,0.318621 0.20267,0.06376 0.18953,0.06945 -0.0739,0.03204 -0.47154,-0.06695 -0.93124,0.05115 -0.98396,0.252808 -0.0283,0.108124 -0.11644,0.161113 -0.23127,0.138998 -0.10207,-0.01966 -0.20712,-8.87e-4 -0.23343,0.04169 -0.0263,0.04259 -0.18862,0.08143 -0.36067,0.08632 -0.37625,0.0107 -0.59521,0.181621 -0.35214,0.274897 0.0901,0.03457 0.1392,0.102698 0.10911,0.151389 -0.0322,0.05202 -0.1234,0.05227 -0.22128,5.92e-4 -0.0916,-0.04836 -0.37139,-0.05641 -0.62176,-0.01789 -0.25036,0.03852 -0.55824,0.03193 -0.68418,-0.01466 -0.12594,-0.04659 -0.36476,-0.05239 -0.53073,-0.01289 -0.16596,0.0395 -0.33929,0.06194 -0.38516,0.04987 -0.077,-0.02024 -2.36269,-0.10087 -4.10682,-0.144865 -0.4067,-0.01026 -0.79685,-0.05575 -0.86701,-0.101086 -0.0714,-0.04615 -0.17991,-0.03967 -0.24649,0.01472 -0.12016,0.09817 -0.57125,0.08563 -0.74321,-0.02065 -0.0513,-0.03171 -0.30885,-0.01739 -0.5723,0.03182 -0.26344,0.04922 -0.52347,0.0551 -0.57784,0.01307 -0.0783,-0.06054 -0.85337,-0.05854 -1.57775,0.0041 -0.0542,0.0047 -0.48443,-0.01741 -0.95601,-0.04911 -0.47159,-0.0317 -0.87833,-0.02381 -0.90388,0.01753 -0.0608,0.09832 -1.04439,0.07773 -1.28352,-0.02687 -0.11118,-0.04863 -0.25812,-0.03589 -0.36646,0.03177 -0.12717,0.07942 -0.25858,0.08341 -0.44261,0.01344 -0.18159,-0.06904 -0.30141,-0.06658 -0.39133,0.008 -0.0875,0.07259 -0.18857,0.07599 -0.31098,0.01048 -0.11932,-0.06386 -0.24133,-0.06353 -0.35654,9.86e-4 -0.11829,0.0662 -0.21644,0.06376 -0.30231,-0.0075 -0.0699,-0.05804 -0.15635,-0.07633 -0.19203,-0.04065 -0.078,0.07797 -0.59353,0.123831 -1.81119,0.161097 -0.49955,0.01529 -0.93914,0.05866 -0.97686,0.09639 -0.0377,0.03772 -0.12469,0.02203 -0.19326,-0.03487 -0.0861,-0.07148 -0.30227,-0.07258 -0.69922,-0.0035 -0.31601,0.05495 -0.81085,0.08939 -1.09965,0.07653 -0.2888,-0.01286 -0.54666,0.01152 -0.57303,0.05419 -0.0264,0.04267 -0.23376,0.07341 -0.46085,0.06833 -0.2271,-0.0051 -0.61256,0.02086 -0.85658,0.05766 -0.24402,0.0368 -0.64332,0.07834 -0.88734,0.09231 -0.24402,0.01397 -0.46585,0.03705 -0.49297,0.05128 -0.0271,0.01424 -0.42642,0.03934 -0.88734,0.05577 -0.46093,0.01644 -0.83805,0.03704 -0.83805,0.04578 0,0.02496 -0.3183,0.07094 -1.38031,0.199393 -0.54226,0.06559 -1.09685,0.135665 -1.23243,0.155727 -0.13556,0.02006 -0.44613,0.05945 -0.69015,0.08753 -0.24402,0.02808 -0.66551,0.103829 -0.93664,0.168335 -0.64786,0.154133 -0.86652,0.155657 -0.98594,0.0069 -0.0782,-0.09738 -0.15541,-0.09316 -0.37273,0.02036 -0.17648,0.09219 -0.35092,0.114797 -0.48969,0.06346 -0.12647,-0.04678 -0.41049,-0.02832 -0.68715,0.04466 -0.25938,0.06842 -0.47714,0.106236 -0.48392,0.08403 z m -7.87516,-4.408985 c -1.15196,-0.33366 -1.67312,-0.82042 -1.75147,-1.635876 -0.0592,-0.616123 0.18029,-1.128978 0.68235,-1.461227 0.20843,-0.137933 0.37896,-0.286751 0.37896,-0.330706 0,-0.04396 -0.12932,-0.156309 -0.28737,-0.249677 -0.70323,-0.415403 -0.64188,-1.273263 0.13332,-1.864543 l 0.33913,-0.258662 -0.32994,-0.432246 c -0.66266,-0.868128 -0.77987,-1.980637 -0.30988,-2.941255 0.48526,-0.991838 1.31932,-1.482117 2.52521,-1.484364 0.59806,-0.0011 0.84994,0.04971 1.31731,0.265822 l 0.57786,0.267201 0.28789,-0.242251 c 0.26249,-0.22087 0.83727,-0.445095 1.14447,-0.446465 0.0799,-3.95e-4 0.12325,0.151099 0.12325,0.430519 0,0.428857 -0.002,0.431404 -0.40673,0.496108 -0.22369,0.03577 -0.48489,0.106871 -0.58042,0.158001 -0.16393,0.08773 -0.16203,0.116553 0.0337,0.512264 0.28868,0.583478 0.33213,1.495099 0.10566,2.216953 -0.4268,1.360376 -1.93692,2.112543 -3.41643,1.701664 -0.68949,-0.191481 -1.45813,0.437947 -1.04243,0.853638 0.1779,0.177908 1.10227,0.332825 2.00371,0.335807 0.90531,0.003 1.93971,0.228164 2.46657,0.536924 0.7653,0.448494 1.05008,1.4958 0.64769,2.381891 -0.21979,0.484007 -0.66741,0.843161 -1.33958,1.074826 -0.65103,0.224383 -2.68197,0.295499 -3.30288,0.115654 z m 3.12333,-0.905171 c 1.0968,-0.494322 1.11987,-1.636887 0.0423,-2.097289 -0.23587,-0.100782 -0.78771,-0.166396 -1.63748,-0.194694 -1.26266,-0.04205 -1.28775,-0.03869 -1.68738,0.225539 -1.25068,0.826945 -0.82558,2.064276 0.79623,2.317557 0.78702,0.122912 1.9075,0.0097 2.48628,-0.251113 z m -1.12596,-5.134399 c 0.69026,-0.214295 1.25347,-1.079978 1.25525,-1.929406 10e-4,-0.682825 -0.42491,-1.437364 -0.97721,-1.729429 -1.33556,-0.70626 -2.76838,0.213908 -2.76838,1.777875 0,1.392356 1.18389,2.286552 2.49034,1.88096 z m -67.285714,3.374505 c -1.415681,-0.39898 -2.223205,-1.629256 -2.322941,-3.539038 -0.142144,-2.721804 1.058387,-4.459572 3.072154,-4.446947 1.212566,0.0076 2.159146,0.600813 2.62732,1.646514 0.182321,0.407226 0.182283,0.407794 -0.03446,0.518836 -0.545645,0.279549 -0.595548,0.26211 -0.896782,-0.313361 -0.375868,-0.718051 -0.916624,-1.052914 -1.685475,-1.043731 -0.861476,0.01029 -1.415567,0.414354 -1.84431,1.344942 -0.202853,0.440294 -0.227121,0.640643 -0.227121,1.875044 0,1.365008 0.004,1.390265 0.326236,2.045064 0.430841,0.875568 0.949966,1.210263 1.860735,1.199669 0.777826,-0.0091 1.26741,-0.31243 1.716892,-1.063914 l 0.320724,-0.536216 0.327897,0.156364 c 0.382495,0.182398 0.387707,0.207974 0.140762,0.690683 -0.265329,0.518643 -0.862129,1.100738 -1.349643,1.316388 -0.555828,0.245869 -1.455569,0.312156 -2.031992,0.149703 z m 6.796179,0.02114 c -1.657779,-0.374006 -2.696883,-2.246095 -2.483083,-4.473617 0.219643,-2.288393 1.336869,-3.504946 3.224818,-3.511519 1.106013,-0.0039 2.139565,0.614623 2.628405,1.572828 0.669023,1.311395 0.669483,3.551023 9.96e-4,4.861366 -0.604628,1.185167 -2.048348,1.849373 -3.371136,1.550942 z m 1.601446,-0.924507 c 0.382636,-0.200041 0.757466,-0.640101 1.00753,-1.182864 0.202809,-0.440199 0.227121,-0.640722 0.227121,-1.873278 0,-1.337443 -0.0092,-1.398549 -0.295781,-1.967589 -0.166146,-0.329886 -0.46026,-0.717516 -0.671064,-0.884434 -0.317783,-0.251624 -0.479758,-0.303058 -1.057146,-0.335683 -0.598614,-0.03382 -0.736044,-0.0068 -1.125648,0.221547 -0.771137,0.451917 -1.233666,1.563996 -1.233666,2.966159 0,1.226168 0.45692,2.492047 1.036603,2.87187 0.62203,0.40757 1.532916,0.487042 2.112051,0.184272 z m 13.035831,0.926505 c -0.635996,-0.119524 -1.231579,-0.454655 -1.75823,-0.989346 l -0.471944,-0.479148 0.340572,-0.284322 0.340571,-0.284322 0.569904,0.527631 c 0.877619,0.81252 1.808743,1.02695 2.639728,0.607909 0.56174,-0.283269 0.813554,-0.737719 0.750537,-1.354496 -0.0628,-0.61464 -0.374525,-0.844493 -1.999155,-1.474091 -1.1194,-0.433804 -1.418632,-0.595077 -1.813777,-0.977548 -0.387937,-0.375493 -0.485496,-0.541102 -0.541357,-0.918964 -0.198275,-1.341209 0.873325,-2.375859 2.463528,-2.378581 0.549959,-9.86e-4 0.828204,0.05456 1.256446,0.250615 0.503097,0.230324 1.358924,0.948747 1.358924,1.140744 0,0.04403 -0.13789,0.181999 -0.306421,0.3066 l -0.306422,0.226547 -0.352867,-0.363295 c -0.626505,-0.645019 -1.470227,-0.936494 -2.167412,-0.748762 -0.487564,0.131288 -0.775354,0.407566 -0.916993,0.880317 -0.231153,0.771519 0.133831,1.111 1.963965,1.826729 1.737282,0.679417 2.19002,1.067955 2.340426,2.008548 0.09076,0.567608 -0.172563,1.383925 -0.570711,1.769211 -0.64503,0.624191 -1.766616,0.905859 -2.819312,0.708024 z m 5.804782,-0.0637 c -0.185938,-0.09481 -0.429957,-0.297562 -0.542265,-0.450553 -0.194824,-0.2654 -0.20556,-0.422419 -0.233943,-3.421359 l -0.02975,-3.143192 -0.560158,-0.02942 -0.560158,-0.02942 -0.02799,-0.369726 -0.02799,-0.369726 0.59012,0 0.59012,0 0.02778,-1.158474 0.02778,-1.158475 0.443671,0 0.443671,0 0.02778,1.158475 0.02778,1.158474 0.78562,0 0.785619,0 0,0.394375 0,0.394374 -0.788748,0 -0.788749,0 0,3.003263 c 0,2.986483 0.0012,3.004438 0.221836,3.213469 0.195656,0.1854 0.295281,0.202907 0.844198,0.148355 l 0.622362,-0.06185 -0.0308,0.369209 c -0.0248,0.297253 -0.07884,0.382463 -0.277286,0.43722 -0.47318,0.130561 -1.227818,0.08971 -1.570489,-0.08503 z m 8.740336,0.03743 c -0.574763,-0.160388 -0.919205,-0.462996 -1.192724,-1.047862 -0.19488,-0.416709 -0.209563,-0.636891 -0.241611,-3.623314 l -0.03412,-3.179643 0.501486,0 0.501487,0 5.91e-4,2.933159 c 2.96e-4,1.637217 0.0438,3.088858 0.09844,3.285558 0.05384,0.19382 0.212453,0.460022 0.35247,0.591562 0.216937,0.203801 0.351802,0.239162 0.912141,0.239162 0.794708,0 1.200167,-0.179693 1.94832,-0.863462 l 0.533183,-0.487338 0,-2.84932 0,-2.849321 0.488736,0 0.488735,0 0.0062,3.894447 0.0062,3.894446 -0.490018,0 -0.490017,0 -0.02957,-0.540403 -0.02957,-0.540403 -0.443672,0.356451 c -0.931588,0.748451 -1.989573,1.036626 -2.886698,0.786281 z m 8.205877,0.0068 c -1.550608,-0.438409 -2.357539,-1.77788 -2.360201,-3.917833 -0.0024,-1.926869 0.617689,-3.206626 1.844563,-3.80688 0.44944,-0.21989 0.682099,-0.268711 1.26706,-0.265877 1.189724,0.0058 2.063317,0.561854 2.606266,1.659032 l 0.194113,0.392259 -0.220614,0.11307 c -0.524562,0.268846 -0.631237,0.258271 -0.769829,-0.07632 -0.173097,-0.417892 -0.639218,-0.941347 -1.00811,-1.132107 -0.433985,-0.224423 -1.277513,-0.186854 -1.748535,0.07788 -0.796397,0.447602 -1.180148,1.423473 -1.180148,3.001097 0,1.824683 0.536692,2.891572 1.605061,3.190696 0.983373,0.275327 1.932433,-0.190626 2.450022,-1.202869 0.188108,-0.367883 0.191998,-0.369699 0.476577,-0.222538 0.419595,0.216982 0.439511,0.308533 0.167271,0.768933 -0.326407,0.552007 -0.915006,1.109794 -1.371999,1.300177 -0.518496,0.216006 -1.418618,0.271949 -1.951497,0.121287 z m 5.861936,-0.0592 C 87.587138,91.626064 87.551968,91.43318 87.551968,87.93713 l 0,-3.005109 -0.591562,0 -0.591561,0 0,-0.394374 0,-0.394375 0.591561,0 0.591562,0 0,-1.167507 0,-1.167507 0.436582,-0.0066 c 0.272646,-0.0041 0.455068,0.04157 0.48581,0.121685 0.02708,0.07056 0.04136,0.598916 0.03174,1.17413 l -0.01749,1.045846 0.813397,-2.4e-5 0.813397,-2.7e-5 0,0.394375 0,0.394374 -0.785836,0 -0.785837,0 -0.02756,2.873595 c -0.01968,2.051816 0.0059,2.953085 0.08948,3.151559 0.139496,0.331298 0.453695,0.431119 1.067349,0.339096 l 0.442408,-0.06634 0,0.387516 c 0,0.371202 -0.01556,0.390088 -0.369726,0.448627 -0.622355,0.10287 -1.041625,0.06724 -1.463512,-0.124359 z m 26.136547,0.145147 c -0.0542,-0.02137 -0.2147,-0.06428 -0.35661,-0.09535 -0.1419,-0.03108 -0.48468,-0.212428 -0.76172,-0.402999 -0.58521,-0.402553 -0.60706,-0.408217 -0.60706,-0.157369 0,0.451736 -0.0848,0.501032 -0.86232,0.501032 l -0.74264,0 0.0622,-0.517616 c 0.0342,-0.284689 0.0626,-2.72488 0.063,-5.422647 l 8.6e-4,-4.905031 0.93664,0 0.93664,0 0,1.8246 0,1.824599 0.39619,-0.287002 c 1.31621,-0.953455 3.13131,-0.415845 3.9386,1.166563 0.54564,1.069554 0.64069,3.044691 0.2067,4.295366 -0.43514,1.253973 -1.3917,2.074047 -2.52759,2.16693 -0.32136,0.02628 -0.62866,0.0303 -0.68289,0.0089 z m 0.64195,-1.756837 c 0.33035,-0.1676 0.49816,-0.341688 0.6864,-0.712062 0.21965,-0.432184 0.24915,-0.613125 0.24915,-1.528201 0,-1.198753 -0.18274,-1.820484 -0.65085,-2.214369 -0.5368,-0.451692 -1.38732,-0.43054 -1.99783,0.04968 l -0.25983,0.204385 0,1.908705 0,1.908705 0.29986,0.213518 c 0.60381,0.429956 1.06736,0.476956 1.6731,0.169635 z m 5.90966,1.671566 c -1.56709,-0.445411 -2.36137,-1.789958 -2.36137,-3.997301 0,-1.850197 0.63869,-3.137531 1.85088,-3.730599 0.75773,-0.370725 1.97354,-0.387703 2.76127,-0.03856 1.11069,0.492288 1.75204,1.621693 1.86541,3.284977 l 0.0588,0.862694 -2.33154,0 -2.33154,0 0,0.42278 c 0,0.242601 0.0945,0.609923 0.22183,0.861898 0.549,1.086726 1.83994,1.200549 2.68668,0.236887 l 0.29578,-0.336626 0.6655,0.405867 c 0.36603,0.223226 0.66551,0.439855 0.66551,0.481397 0,0.237645 -0.93712,1.078201 -1.46735,1.316157 -0.71571,0.32119 -1.89115,0.426179 -2.57986,0.230429 z m 2.27253,-5.24875 c 0,-1.095016 -1.35123,-1.754394 -2.1749,-1.061317 -0.3287,0.276582 -0.58572,0.763931 -0.58572,1.110614 0,0.191869 0.0585,0.200354 1.38031,0.200354 l 1.38031,0 0,-0.249651 z m 4.2991,5.274135 c -0.40227,-0.120378 -0.83236,-0.563891 -0.947,-0.976542 -0.0536,-0.192876 -0.0977,-1.470952 -0.098,-2.840171 l -5.5e-4,-2.489487 -0.32043,-0.01135 c -0.17623,-0.0062 -0.39807,-0.0035 -0.49296,0.0062 -0.15151,0.01541 -0.17254,-0.07935 -0.17254,-0.777395 l 0,-0.794951 0.49297,0 0.49296,0 0,-1.284643 0,-1.284641 0.93664,0.01401 0.93664,0.01401 0,1.270633 0,1.270631 1.18018,0 1.18018,0 0.0276,-1.257068 0.0276,-1.257068 0.90902,-0.02831 0.90902,-0.02831 0.0276,1.260728 0.0276,1.260728 0.76817,0.02887 0.76818,0.02887 -0.0287,0.759879 -0.0287,0.75988 -0.7641,0.0288 -0.7641,0.0288 0,2.153989 c 0,2.606202 -5e-4,2.604909 0.96803,2.583016 l 0.60946,-0.01378 0,0.734118 c 0,0.412794 -0.0459,0.762514 -0.10497,0.798994 -0.0577,0.03568 -0.45083,0.08858 -0.87355,0.117555 -1.41868,0.09724 -2.12043,-0.23897 -2.36932,-1.135143 -0.0573,-0.206497 -0.10207,-1.432593 -0.10238,-2.806855 -4e-4,-1.554088 -0.0363,-2.443771 -0.0992,-2.450051 -0.0542,-0.0054 -0.20951,-0.0099 -0.34507,-0.0099 -0.13557,0 -0.62593,0.0044 -1.08969,0.0099 l -0.84319,0.0099 0.0298,2.271382 c 0.0248,1.889106 0.0547,2.287095 0.17769,2.364736 0.0813,0.05134 0.4222,0.09403 0.75746,0.09486 l 0.60957,0.0015 -0.018,0.763182 c -0.018,0.76292 -0.0181,0.763203 -0.31379,0.826381 -0.43451,0.09284 -1.73027,0.08287 -2.06018,-0.01585 z m 9.57641,7.88e-4 c -0.89356,-0.22427 -1.66231,-0.834777 -2.04401,-1.623257 -0.48051,-0.992617 -0.61124,-2.79288 -0.2864,-3.944311 0.52453,-1.859311 2.14273,-2.832444 3.94389,-2.371729 1.46402,0.374483 2.2189,1.457395 2.39492,3.435677 0.0279,0.314038 0.026,0.6357 -0.004,0.714803 -0.0462,0.120395 -0.43297,0.143824 -2.37429,0.143824 l -2.31911,0 0.0673,0.50727 c 0.0825,0.622246 0.37149,1.210723 0.70025,1.426134 0.33072,0.216701 1.02768,0.285089 1.45802,0.143066 0.19264,-0.06358 0.50728,-0.289405 0.69921,-0.501835 l 0.34894,-0.386238 0.60394,0.359767 c 0.33216,0.197873 0.62566,0.416351 0.65219,0.485507 0.12448,0.324399 -0.85597,1.187665 -1.67951,1.47876 -0.51834,0.183218 -1.67615,0.254243 -2.16096,0.132562 z m 2.14642,-5.345701 c -0.11637,-0.578196 -0.15417,-0.650176 -0.50159,-0.955215 -0.83847,-0.736186 -2.21021,-0.09941 -2.21021,1.025993 l 0,0.249651 1.38815,0 1.38814,0 -0.0645,-0.320429 z m 19.30159,5.340133 c -1.62051,-0.306999 -2.5783,-1.950615 -2.4655,-4.230955 0.10051,-2.031841 0.92572,-3.311933 2.37907,-3.690483 2.14427,-0.55851 3.7059,0.977358 3.66347,3.603022 l -0.005,0.333945 -2.5519,0.02634 -2.55192,0.02634 0.0476,0.665404 c 0.077,1.075551 0.57486,1.974744 1.30966,2.365205 0.39766,0.211307 1.47874,0.209145 1.88329,-0.0038 0.34898,-0.183672 0.85094,-0.724614 1.0757,-1.159243 0.14879,-0.287716 0.16023,-0.291554 0.43926,-0.147261 0.15757,0.08149 0.314,0.192644 0.3476,0.247021 0.0857,0.138707 -0.60167,1.14487 -0.97857,1.432333 -0.66568,0.507746 -1.65214,0.710222 -2.59237,0.532099 z m 2.63445,-5.048159 c -0.001,-0.753643 -0.39376,-1.52293 -0.97766,-1.916422 -0.49667,-0.334701 -1.49734,-0.319498 -2.03783,0.03096 -0.47794,0.309907 -0.79692,0.756935 -0.98425,1.379359 -0.285,0.946987 -0.42873,0.883592 1.92973,0.85118 l 2.07056,-0.02846 -9.8e-4,-0.316622 z m 3.25414,5.039479 c -1.02961,-0.29258 -1.62121,-1.379952 -1.3751,-2.527491 0.14272,-0.665541 0.56627,-1.227862 1.20115,-1.594733 0.55099,-0.31839 2.01765,-0.809449 2.95922,-0.990785 l 0.56691,-0.109183 0,-0.446428 c 0,-0.992854 -0.57509,-1.511463 -1.67609,-1.511463 -0.73578,0 -1.22714,0.229667 -1.69412,0.791857 l -0.33642,0.405005 -0.31512,-0.179409 c -0.17331,-0.09867 -0.3154,-0.228619 -0.31574,-0.288768 -0.001,-0.19941 0.80592,-1.029536 1.19282,-1.226919 1.40034,-0.714398 3.47504,-0.174337 3.92715,1.022269 0.0645,0.170624 0.10652,1.329112 0.10916,3.007104 0.002,1.501254 0.0408,2.918114 0.0854,3.148576 l 0.0811,0.419023 -0.47527,0 c -0.4716,0 -0.47577,-0.0028 -0.54197,-0.369726 -0.0367,-0.203349 -0.0865,-0.404278 -0.11063,-0.446509 -0.0242,-0.04223 -0.26442,0.08507 -0.53391,0.2829 -0.83153,0.610399 -1.91265,0.852186 -2.74846,0.61468 z m 1.93954,-1.003668 c 0.2618,-0.133803 0.66457,-0.405963 0.89503,-0.6048 l 0.41902,-0.361521 0,-1.175439 c 0,-1.385058 0.0739,-1.333326 -1.32565,-0.927747 -1.53953,0.446138 -2.24053,0.941478 -2.37931,1.681271 -0.26521,1.41368 0.95494,2.122138 2.39091,1.388236 z m 8.71781,0.990704 c -0.18472,-0.06472 -0.42874,-0.242863 -0.54227,-0.395866 -0.19802,-0.266871 -0.20759,-0.408284 -0.23495,-3.475424 l -0.0285,-3.197235 -0.58768,0 -0.58768,0 0,-0.394374 0,-0.394375 0.59156,0 0.59156,0 0,-1.183123 0,-1.183123 0.44367,0 0.44367,0 0,1.183123 0,1.183123 0.83805,0 0.83804,0 0,0.394375 0,0.394374 -0.84213,0 -0.84214,0 0.0287,3.015927 0.0287,3.015928 0.24648,0.199698 c 0.2077,0.168272 0.3357,0.190395 0.8134,0.14058 l 0.56691,-0.05912 0,0.379462 c 0,0.376685 -0.003,0.379919 -0.45743,0.44216 -0.62775,0.08604 -0.91526,0.07151 -1.30801,-0.06611 z m -124.727844,-3.962812 0.0059,-3.894447 0.488877,0 0.488877,0 0,0.592697 0,0.592695 0.518804,-0.422572 c 0.713371,-0.581049 1.424685,-0.871091 2.144747,-0.874535 0.319986,-0.0015 0.683474,0.02813 0.807752,0.06591 0.418528,0.127235 0.888845,0.563649 1.100367,1.021047 0.198257,0.428715 0.211919,0.633862 0.242017,3.634008 l 0.0319,3.179643 -0.500218,0 -0.500217,0 -0.0056,-2.982456 c -0.0038,-2.04403 -0.04259,-3.088128 -0.123242,-3.318299 -0.185551,-0.52955 -0.565613,-0.749639 -1.283719,-0.743386 -0.724428,0.0063 -1.175657,0.213866 -1.920158,0.883235 l -0.512472,0.460752 0,2.850077 0,2.850077 -0.494781,0 -0.494781,0 0.0059,-3.894446 z m 18.042618,0 0.0061,-3.894447 0.488805,0 0.488806,0 0,0.713487 0,0.713488 0.336413,-0.491652 c 0.421394,-0.615847 0.875287,-0.920551 1.524027,-1.023104 l 0.505806,-0.07996 0,0.464842 0,0.464842 -0.463415,0.06352 c -0.549195,0.07528 -0.974734,0.344833 -1.321313,0.836985 -0.546406,0.775911 -0.581518,0.997119 -0.581518,3.6636 l 0,2.462844 -0.49486,0 -0.49486,0 0.0061,-3.894446 z m 22.970034,-0.0054 0,-3.899849 0.468319,0.03005 0.46832,0.03005 0.02746,3.869798 0.02746,3.869798 -0.495776,0 -0.495776,0 0,-3.899848 z m 3.253588,0.0054 0,-3.894447 0.500024,0 c 0.458138,0 0.498518,0.01858 0.482054,0.221836 -0.0099,0.122009 -0.01306,0.365937 -0.0071,0.54206 l 0.01091,0.320225 0.591712,-0.435593 c 0.944977,-0.695653 2.027031,-0.939393 2.896478,-0.652451 0.50949,0.16815 1.004546,0.768979 1.135066,1.377601 0.0662,0.308393 0.10924,1.674192 0.10924,3.462259 l 0,2.952955 -0.492966,0 -0.49297,0 0,-3.061297 c 0,-3.25695 -0.013,-3.356553 -0.49323,-3.791189 -0.171581,-0.155283 -0.356245,-0.196955 -0.872784,-0.196955 -0.7348,0 -1.195438,0.211049 -1.969475,0.902348 l -0.424774,0.379369 0.0095,2.883862 0.0095,2.883862 -0.495573,0 -0.495574,0 0,-3.894446 z m 47.620704,0 0,-3.894447 0.93664,0 0.93663,0 0,0.54993 0,0.549929 0.32043,-0.418004 c 0.35446,-0.462385 0.85566,-0.765934 1.30694,-0.791533 0.56424,-0.03201 0.55075,-0.05584 0.53387,0.943181 l -0.0158,0.932097 -0.517,0.107329 c -0.54325,0.112776 -0.99855,0.391208 -1.33113,0.81401 -0.18704,0.237781 -0.19875,0.395594 -0.19875,2.677314 l 0,2.42464 -0.98594,0 -0.98593,0 0,-3.894446 z m 6.50886,-1.478904 0.005,-5.37335 0.48982,0 0.4898,0 0,2.076334 0,2.076334 0.46832,-0.389579 c 1.58379,-1.317494 3.45126,-1.240145 4.10334,0.16996 0.19835,0.428895 0.21185,0.632603 0.24096,3.634008 l 0.0308,3.179643 -0.49915,0 -0.49915,0 -0.006,-2.982456 c -0.004,-2.04403 -0.0426,-3.088128 -0.12324,-3.318299 -0.18556,-0.52955 -0.56563,-0.749639 -1.28372,-0.743386 -0.73002,0.0064 -1.2514,0.247797 -1.95366,0.904682 l -0.47897,0.448014 0,2.845723 0,2.845722 -0.49445,0 -0.49445,0 0.005,-5.37335 z m 22.08496,0 0.005,-5.37335 0.48982,0 0.4898,0 0,5.37335 0,5.37335 -0.49445,0 -0.49444,0 0.005,-5.37335 z m 7.19565,0 0,-5.37335 0.44367,0 0.44367,0 0,1.955439 c 0,1.075492 0.0264,1.981829 0.0586,2.014083 0.0323,0.03226 0.32071,-0.134276 0.64101,-0.370068 0.6897,-0.507723 1.40792,-0.767859 2.10041,-0.760747 0.63787,0.0065 1.01054,0.14891 1.41752,0.541481 0.56027,0.540442 0.6135,0.915983 0.6135,4.328006 l 0,3.038506 -0.49296,0 -0.49297,0 0,-3.031753 c 0,-2.688857 -0.0197,-3.07078 -0.17254,-3.37683 -0.5089,-1.018721 -1.98103,-0.865722 -3.2355,0.336267 l -0.43695,0.418681 0,2.826817 0,2.826818 -0.44367,0 -0.44368,0 0,-5.37335 z m -86.762356,-4.678276 0,-0.695075 0.573463,0 0.573462,0 -0.0065,0.665506 -0.0065,0.665507 -0.566913,0.02957 -0.566913,0.02957 0,-0.695076 z m 64.507726,-17.03696 c 0.0261,-8.729127 0.0625,-11.426227 0.1591,-11.806581 0.43329,-1.705792 1.73171,-3.328355 3.26415,-4.079035 1.48913,-0.729465 0.91201,-0.699129 13.33677,-0.701042 l 11.11841,-0.0017 -0.0266,11.5108 -0.0266,11.510801 -0.25872,0.707522 c -0.72654,1.986882 -2.34728,3.457025 -4.38597,3.978434 -0.73475,0.187917 -1.13606,0.194426 -11.98726,0.194426 l -11.22707,0 0.0339,-11.313613 z m 5.15397,4.282806 c 1.14578,-0.240228 1.88179,-0.884398 2.25007,-1.969303 0.0881,-0.259471 0.16014,-0.511863 0.16014,-0.560871 0,-0.04901 -0.21074,-0.116864 -0.46832,-0.150788 -0.25757,-0.03392 -0.59037,-0.08454 -0.73953,-0.112487 -0.20336,-0.03809 -0.2865,-0.0057 -0.33231,0.129585 -0.34791,1.027248 -0.77004,1.41184 -1.55031,1.412442 -0.63194,4.93e-4 -1.0036,-0.271564 -1.33424,-0.976643 -0.24036,-0.512538 -0.25848,-0.647978 -0.25848,-1.931499 0,-1.319628 0.0124,-1.405601 0.28246,-1.955564 0.33316,-0.678493 0.71354,-0.952047 1.32458,-0.952578 0.75655,-6.9e-4 1.15718,0.333195 1.40918,1.174305 l 0.12612,0.420966 0.5486,-0.06568 c 0.98104,-0.117449 1.0114,-0.13308 0.93612,-0.482076 -0.19477,-0.903002 -0.97006,-1.825458 -1.793,-2.13336 -0.64323,-0.240665 -1.67827,-0.258949 -2.31806,-0.04095 -0.90656,0.308896 -1.68299,1.223113 -2.05564,2.420453 -0.2401,0.771451 -0.25392,2.383994 -0.027,3.149434 0.44278,1.493486 1.37567,2.448048 2.594,2.654254 0.63399,0.107303 0.58711,0.108418 1.2456,-0.02964 z m 9.13762,-0.343204 c 0.75829,-0.373567 1.27454,-0.916647 1.4998,-1.577766 0.18277,-0.536374 0.19749,-1.279297 0.036,-1.818173 -0.12888,-0.430152 -0.86185,-1.310295 -1.17359,-1.409239 -0.17602,-0.05587 -0.1473,-0.106777 0.26506,-0.469742 0.58898,-0.518443 0.82359,-1.030067 0.82638,-1.802113 0.005,-1.294992 -0.59047,-2.110148 -1.83668,-2.515608 -0.59766,-0.194451 -0.93878,-0.224781 -2.96759,-0.263863 l -2.2923,-0.04416 0,5.143417 0,5.143417 2.49202,-0.0308 2.49202,-0.0308 0.65884,-0.32457 z m -3.57241,-2.671893 0,-1.489545 0.91199,5.92e-4 c 1.12005,6.9e-4 1.5291,0.107439 1.90171,0.496364 0.25575,0.266956 0.28855,0.371149 0.29017,0.921804 0.004,1.197216 -0.34425,1.462394 -1.99469,1.520991 l -1.10918,0.03938 0,-1.489544 z m 0,-4.352938 0,-1.307178 0.99845,0.06543 c 0.56813,0.03723 1.1385,0.131889 1.3234,0.219626 0.74832,0.355104 0.84578,1.618346 0.16026,2.077157 -0.2036,0.136261 -0.51676,0.185151 -1.37293,0.214334 l -1.10918,0.03781 0,-1.307177 z m 8.99515,4.564133 0.0262,-2.834566 2.0936,-0.0266 2.0936,-0.02661 0.0262,2.836523 0.0262,2.836521 1.25707,0.0276 1.25707,0.02759 0,-8.136915 c 0,-4.475304 -0.0332,-8.136917 -0.0738,-8.136917 -0.0406,0 -0.61736,0.181143 -1.28171,0.40254 l -1.20792,0.402541 0,3.787687 0,3.787687 -2.11976,0 -2.11977,0 0,-3.056401 c 0,-1.681021 -0.0253,-3.056401 -0.0563,-3.056401 -0.031,0 -0.58556,0.16352 -1.23242,0.363377 l -1.17611,0.363378 0,6.636766 0,6.636767 1.23092,0 1.2309,0 0.0262,-2.834565 z"
     id="path3340"
     inkscape:connector-curvature="0" />
</svg>
