<?xml version="1.0" encoding="UTF-8" standalone="no"?>
<!-- Created with Inkscape (http://www.inkscape.org/) -->

<svg
   xmlns:dc="http://purl.org/dc/elements/1.1/"
   xmlns:cc="http://creativecommons.org/ns#"
   xmlns:rdf="http://www.w3.org/1999/02/22-rdf-syntax-ns#"
   xmlns:svg="http://www.w3.org/2000/svg"
   xmlns="http://www.w3.org/2000/svg"
   xmlns:sodipodi="http://sodipodi.sourceforge.net/DTD/sodipodi-0.dtd"
   xmlns:inkscape="http://www.inkscape.org/namespaces/inkscape"
   id="svg2"
   version="1.1"
   inkscape:version="0.91 r13725"
   width="225"
   height="150"
   viewBox="0 0 224.99999 150"
   sodipodi:docname="kingspan-logo.svg">
  <metadata
     id="metadata8">
    <rdf:RDF>
      <cc:Work
         rdf:about="">
        <dc:format>image/svg+xml</dc:format>
        <dc:type
           rdf:resource="http://purl.org/dc/dcmitype/StillImage" />
        <dc:title></dc:title>
      </cc:Work>
    </rdf:RDF>
  </metadata>
  <defs
     id="defs6" />
  <sodipodi:namedview
     pagecolor="#ffffff"
     bordercolor="#666666"
     borderopacity="1"
     objecttolerance="10"
     gridtolerance="10"
     guidetolerance="10"
     inkscape:pageopacity="0"
     inkscape:pageshadow="2"
     inkscape:window-width="1920"
     inkscape:window-height="1137"
     id="namedview4"
     showgrid="false"
     fit-margin-top="0"
     fit-margin-left="0"
     fit-margin-right="0"
     fit-margin-bottom="0"
     inkscape:zoom="4.0465422"
     inkscape:cx="65.402881"
     inkscape:cy="91.407233"
     inkscape:window-x="-8"
     inkscape:window-y="-8"
     inkscape:window-maximized="1"
     inkscape:current-layer="svg2" />
  <path
     style="fill:#ffffff"
     d="m 96.542058,107.66096 c -1.191233,-0.0565 -2.421646,-0.26233 -3.687706,-0.61799 -0.911536,-0.25598 -1.009734,-0.29982 -1.072284,-0.47836 -0.09402,-0.26826 -0.644253,-2.18113 -0.631195,-2.19418 0.007,-0.007 0.21221,0.0459 0.45584,0.11796 1.264439,0.37331 2.837808,0.73222 3.728724,0.85054 0.790531,0.10497 1.921899,0.15002 2.489631,0.0992 1.356144,-0.12128 2.659622,-0.53758 3.312702,-1.05801 0.48556,-0.38694 0.67624,-0.72333 0.67624,-1.19314 7e-5,-0.25846 -0.0142,-0.32227 -0.10774,-0.49163 -0.27885,-0.50321 -0.88067,-0.90215 -1.878469,-1.2451 -0.949303,-0.32636 -1.62533,-0.44433 -3.547794,-0.61905 -2.979353,-0.27074 -3.682625,-0.47998 -4.558789,-1.356149 -0.835009,-0.835009 -0.956926,-1.948304 -0.338086,-3.086591 0.384749,-0.707578 1.041147,-1.479544 1.940682,-2.282004 L 93.595535,93.8641 93.286749,93.658028 c -1.686955,-1.12529 -2.666543,-2.397783 -2.961563,-3.846617 -0.30427,-1.494163 -0.09432,-2.902196 0.606774,-4.068647 0.303416,-0.504689 0.528264,-0.793354 0.931224,-1.195113 1.064235,-1.060986 2.530433,-1.836411 4.155409,-2.197579 l 0.449203,-0.09989 4.538744,-0.01201 4.53881,-0.01201 0,1.319156 c 0,0.812485 -0.0134,1.319151 -0.0353,1.319151 -0.0198,0 -0.5066,-0.07462 -1.08238,-0.165757 -0.57585,-0.09121 -1.06035,-0.157571 -1.07666,-0.147408 -0.0163,0.0099 0.10229,0.193644 0.26361,0.407903 0.91944,1.221379 1.31145,2.242266 1.36215,3.54765 0.0332,0.855623 -0.0969,1.535385 -0.44518,2.326908 -0.83042,1.886955 -2.47862,3.215355 -4.640189,3.73995 -0.791312,0.192095 -1.112663,0.222097 -2.365384,0.220757 -1.047711,0 -1.20521,-0.0092 -1.512447,-0.07857 -0.249203,-0.05646 -0.352062,-0.06566 -0.376345,-0.03598 -0.0579,0.072 -0.398161,0.773306 -0.500521,1.031759 -0.05718,0.143377 -0.0982,0.320715 -0.0982,0.421315 0,0.148039 0.01766,0.190323 0.120649,0.286617 0.325803,0.304762 0.868188,0.404372 3.18366,0.584532 2.643877,0.20579 3.693217,0.367168 4.836297,0.744013 1.73017,0.570338 2.68165,1.423841 3.04105,2.727962 0.0718,0.26092 0.0819,0.38954 0.0826,1.05808 0,0.82471 -0.048,1.16618 -0.25951,1.80458 -0.76278,2.30481 -3.02466,3.79543 -6.475249,4.26736 -0.507868,0.0692 -2.098103,0.0979 -3.025802,0.0544 z m 1.731787,-14.755998 c 0.35778,-0.07589 0.534691,-0.180227 0.855833,-0.504966 0.247293,-0.250123 0.315561,-0.350441 0.508573,-0.746974 0.25471,-0.523327 0.446229,-1.127133 0.586999,-1.850316 0.21899,-1.124803 0.094,-2.413459 -0.349369,-3.601299 -0.590399,-1.582192 -1.570479,-2.300438 -2.758397,-2.021299 -0.429646,0.100955 -0.762434,0.293675 -1.115835,0.646302 -0.272995,0.272285 -0.344434,0.371684 -0.508221,0.706665 -0.444326,0.909061 -0.638746,1.83005 -0.639947,3.031452 0,0.502359 0.01766,0.78121 0.07179,1.095294 0.263961,1.534538 0.896286,2.630679 1.76532,3.060253 0.457246,0.226049 1.057947,0.296149 1.58325,0.184888 z m 24.127085,2.244026 c 0,-7.739338 0.0134,-12.400421 0.0347,-12.400421 0.14395,0 4.18506,-0.64101 4.21216,-0.668194 0.043,-0.04307 0.0799,-0.03033 -0.77584,-0.275247 -4.47301,-1.281107 -8.96947,-2.872897 -12.80875,-4.53451 -0.3472,-0.150298 -0.64871,-0.278148 -0.67017,-0.284219 -0.0402,-0.01129 -0.2055,0.08211 -1.30785,0.739138 -0.35277,0.210162 -0.67334,0.382208 -0.71224,0.382208 -0.21201,0 -0.3719,-0.165265 -0.4492,-0.4641 -0.0706,-0.272358 -0.10936,-0.333 -0.32348,-0.504054 -0.26494,-0.211644 -0.93962,-0.669105 -1.30517,-0.884987 -0.40318,-0.23805 -1.4362,-0.745774 -1.97047,-0.968292 -0.52608,-0.219129 -0.55036,-0.229295 -0.77966,-0.327987 -0.0919,-0.03954 -0.41764,-0.167313 -0.72395,-0.283937 -0.54924,-0.209034 -1.14408,-0.438329 -1.31048,-0.505042 -0.0466,-0.01906 -0.109,-0.0346 -0.13794,-0.0346 -0.0981,0 -0.31337,0.227037 -0.3587,0.378182 -0.024,0.08174 -0.0913,0.198586 -0.1484,0.259863 -0.0995,0.106388 -0.11386,0.11027 -0.33652,0.09008 -0.57133,-0.05153 -1.98783,-0.06636 -2.4359,-0.02541 -1.584388,0.145639 -3.17159,0.579661 -5.853239,1.600405 -0.490076,0.186515 -1.020532,0.387854 -1.17874,0.447366 -0.158273,0.0593 -0.425622,0.16004 -0.59413,0.223365 -0.280058,0.105329 -1.56857,0.549165 -1.761722,0.606838 -0.07892,0.0233 -0.08174,0.01556 -0.08091,-0.24094 0.007,-0.551635 -0.335118,-0.943371 -1.211282,-1.408809 -0.468051,-0.248639 -0.61651,-0.338013 -0.835081,-0.50243 -0.112313,-0.08451 -0.421381,-0.284078 -0.686892,-0.443482 -2.354862,-1.414245 -3.982801,-2.923442 -5.580313,-5.173188 -0.169572,-0.238825 -0.378394,-0.532857 -0.464027,-0.653434 -1.239591,-1.744846 -2.10566,-2.606184 -3.361064,-3.34264 -0.03106,-0.01835 -0.110271,0.01412 -0.212069,0.08768 -0.403455,0.289795 -0.939841,0.46219 -1.427729,0.458873 -0.406914,-0.007 -0.6163,-0.05295 -0.993706,-0.238967 -0.535116,-0.263605 -0.899672,-0.762363 -1.135462,-1.553672 -0.200563,-0.672565 -0.2192,-1.15177 -0.06706,-1.726349 0.148322,-0.561024 0.638185,-1.504254 0.938712,-1.807321 0.212069,-0.213976 0.343166,-0.253369 0.960668,-0.288808 0.48598,-0.02754 0.618136,-0.06778 0.766033,-0.230071 0.102362,-0.1126 0.199222,-0.305257 0.199222,-0.396396 0,-0.05717 0.07645,-0.09919 0.380582,-0.208469 1.206975,-0.43381 2.260053,-0.421033 3.443449,0.04165 0.472498,0.18475 1.376336,0.655412 1.936443,1.008249 0.652515,0.411079 0.849902,0.558694 1.977036,1.478488 0.137803,0.112459 0.201687,0.143945 0.235503,0.116129 0.02613,-0.02118 0.04661,-0.06283 0.04661,-0.0934 0,-0.03036 0.05081,-0.161805 0.113232,-0.292268 0.110907,-0.23233 0.27801,-0.402466 0.757635,-0.770905 0.104907,-0.08061 0.133779,-0.125731 0.118739,-0.185597 -0.01057,-0.04377 -0.06283,-0.235648 -0.114859,-0.426751 -0.15333,-0.560671 -0.111046,-0.927486 0.138584,-1.20161 0.06565,-0.07193 0.176839,-0.20388 0.247438,-0.293255 0.281746,-0.356509 0.51302,-0.47645 1.598007,-0.828582 0.42534,-0.138015 0.743863,-0.299255 0.966031,-0.488876 0.358555,-0.306032 0.995469,-0.460567 1.609089,-0.390324 0.631406,0.07222 1.263028,0.333 2.437035,1.006061 0.561942,0.322127 1.275034,0.672424 1.577886,0.77507 0.315069,0.106669 0.33519,0.08041 0.330529,-0.432328 -0.007,-0.349168 -0.01766,-0.435364 -0.119803,-0.708641 -0.203951,-0.545917 -0.564692,-1.050324 -0.979089,-1.368922 -0.260855,-0.200421 -0.586225,-0.359403 -1.347818,-0.658376 -0.98375,-0.38623 -1.408946,-0.675037 -1.503828,-1.021591 -0.08132,-0.296855 -0.268898,-0.871364 -0.296996,-0.909626 -0.01484,-0.02048 -0.04727,-0.09898 -0.07158,-0.174584 -0.05226,-0.161735 -0.418138,-0.779378 -0.52573,-0.886895 -0.04096,-0.04095 -0.06636,-0.103003 -0.05718,-0.137661 0.0099,-0.0346 0.02895,-0.118813 0.04307,-0.186867 0.02258,-0.111754 0.0346,-0.121496 0.123472,-0.09961 0.198864,0.04941 0.427244,0.189832 0.572321,0.352908 0.197807,0.222306 0.363144,0.57712 0.598509,1.284137 l 0.194563,0.58411 0.164767,0.04307 c 0.09058,0.02329 0.199927,0.05507 0.242993,0.06918 0.05153,0.01765 0.09467,0.007 0.12573,-0.03106 0.141967,-0.171052 -0.691625,-2.255958 -1.111529,-2.77999 -0.03177,-0.03953 -0.11352,-0.135756 -0.181572,-0.213481 l -0.123826,-0.141333 0.04661,-0.251956 0.04733,-0.251957 0.392377,-0.154393 c 0.215736,-0.08493 0.642913,-0.250049 0.949225,-0.366886 0.306318,-0.116906 0.749022,-0.286336 0.983894,-0.376557 0.2348,-0.09022 0.827879,-0.315847 1.317955,-0.50123 1.36525,-0.51662 1.246576,-0.44666 1.348804,-0.794556 0.230068,-0.782906 0.719579,-1.477287 1.45427,-2.063019 0.180869,-0.144156 0.835363,-0.588415 0.866914,-0.588415 0.01057,0 0.2,-0.09742 0.420823,-0.216517 0.956637,-0.516056 1.494586,-1.006415 2.989306,-2.724645 1.01001,-1.161088 1.40818,-1.391653 2.71215,-1.57026 0.45789,-0.06283 1.92507,-0.118037 2.0825,-0.07857 0.17163,0.04306 0.24949,-0.02612 -1.13249,1.012626 -0.65139,0.489793 -1.10793,0.869881 -1.57189,1.308844 -0.20423,0.193151 -0.50497,0.438329 -0.66826,0.544788 -0.51931,0.338366 -1.34774,0.697839 -2.52464,1.095575 -0.3472,0.117331 -0.62704,0.231484 -0.62188,0.253651 0.007,0.02472 -0.0643,0.04095 -0.185669,0.04095 -0.39576,0 -1.187349,0.360109 -1.707854,0.774719 -0.297626,0.23706 -0.619549,0.572178 -0.852445,0.887458 -0.266568,0.360886 -0.616155,1.101647 -0.572951,1.214247 0.05508,0.143239 0.670026,0.01765 1.51781,-0.310127 0.620396,-0.239814 1.145417,-0.413479 1.25004,-0.413479 0.0367,0 0.14041,0.05577 0.23014,0.123613 0.0896,0.06778 0.397029,0.282806 0.682869,0.477297 0.28584,0.194562 0.92912,0.633668 1.42943,0.975774 0.50023,0.342108 0.93229,0.630987 0.96017,0.642069 0.036,0.01411 0.0444,0.06283 0.0311,0.165972 -0.0106,0.08034 -0.029,0.155169 -0.0395,0.166323 -0.0113,0.01129 -0.14487,-0.05717 -0.29721,-0.152345 -1.17203,-0.730526 -2.761349,-1.207047 -4.035462,-1.209942 -0.310408,0 -0.952055,0.08224 -1.241008,0.160464 -0.503555,0.136321 -1.823912,0.649482 -2.932967,1.139839 -0.285914,0.126438 -0.787144,0.345779 -1.113859,0.487464 -0.32665,0.141757 -0.617783,0.281183 -0.646944,0.309845 -0.05508,0.05436 -0.0085,0.08161 0.461348,0.269817 0.374928,0.150298 0.6571,0.398937 0.583048,0.513726 -0.01412,0.02259 -0.265084,0.21927 -0.557143,0.437552 -0.395831,0.295937 -0.526222,0.412985 -0.512312,0.460143 0.01057,0.03459 0.05364,0.203104 0.09672,0.374158 0.186232,0.741679 0.577474,1.455332 1.004934,1.832807 0.231058,0.204022 0.628372,0.462755 0.7625,0.4965 0.05298,0.01341 0.425694,-0.15404 1.163844,-0.523256 0.596959,-0.298691 1.098261,-0.538011 1.11407,-0.531868 0.03952,0.01553 0.778177,1.005142 1.029146,1.378452 0.45047,0.670095 0.625904,1.178032 0.617999,1.788615 -0.007,0.296573 -0.0212,0.375851 -0.151714,0.705393 -0.337659,0.850891 -0.611855,1.530021 -0.664867,1.646716 -0.03105,0.06848 -0.04306,0.138085 -0.02541,0.154747 0.01766,0.01695 0.159475,0.09615 0.315844,0.1767 0.156441,0.08048 0.407056,0.246168 0.556927,0.368087 0.95961,0.780576 1.395037,0.984034 1.850386,0.864939 0.30772,-0.08054 0.39167,-0.08076 0.72347,-0.007 0.73942,0.175571 1.52239,0.672919 2.04247,1.297338 0.19612,0.235436 0.24165,0.260429 0.31451,0.172607 0.0367,-0.04377 0.0191,-0.109847 -0.0931,-0.343449 -0.3251,-0.679131 -0.85188,-1.838032 -1.16928,-2.572298 -0.0663,-0.153122 -0.17,-0.387005 -0.23064,-0.519796 -0.0607,-0.13272 -0.14027,-0.316481 -0.17692,-0.408397 -0.0367,-0.09185 -0.11937,-0.283937 -0.18403,-0.426893 -0.1748,-0.387075 -0.17226,-0.381287 -0.33174,-0.760104 -0.0815,-0.193432 -0.14253,-0.357214 -0.13568,-0.363992 0.0325,-0.03248 1.33546,0.920498 1.85843,1.359251 0.87143,0.73109 2.14265,2.00146 2.97978,2.977871 0.40959,0.477651 1.29042,1.58798 1.67129,2.106718 0.16787,0.22866 0.29388,0.368369 0.31407,0.348249 0.0205,-0.02048 -0.007,-0.162017 -0.0635,-0.353402 -0.15121,-0.495795 -0.3738,-1.379018 -0.55813,-2.214519 -0.0923,-0.418632 -0.18334,-0.827947 -0.20233,-0.909626 -0.11161,-0.480122 -0.52889,-2.765165 -0.72205,-3.953998 -0.17987,-1.106801 -0.20903,-1.310116 -0.19046,-1.328753 0.0353,-0.0353 0.44877,0.896072 1.2069,2.720972 0.24108,0.580226 0.85308,2.018121 0.94027,2.209083 0.0516,0.112318 0.17938,0.396324 0.28471,0.631126 0.54125,1.20634 1.33447,2.546601 1.98699,3.357605 0.42915,0.53321 1.04418,1.157841 1.42886,1.451025 0.39483,0.300808 0.57782,0.481675 0.71965,0.710899 0.0906,0.146699 0.16371,0.346555 0.12658,0.346555 -0.0318,0 -1.78332,-0.65894 -1.97718,-0.743796 -0.13505,-0.0593 -0.36505,-0.14924 -0.90963,-0.356157 -0.29607,-0.112528 -0.60514,-0.230353 -0.68682,-0.26191 -0.0817,-0.03106 -0.43255,-0.153899 -0.77966,-0.271864 -1.82942,-0.621948 -2.98854,-0.87447 -4.41809,-0.962645 -0.62682,-0.03882 -0.81235,-0.08853 -1.34308,-0.361661 -0.3359,-0.172889 -0.61539,-0.359191 -1.3301,-0.886754 -0.22457,-0.165828 -0.50865,-0.365404 -0.63113,-0.443694 -0.21645,-0.138155 -0.991519,-0.53801 -1.042839,-0.53801 -0.0501,0 -1.453991,-0.703275 -1.908767,-0.95636 -0.827735,-0.460709 -1.238606,-0.696992 -1.80062,-1.035783 -0.245035,-0.147684 -0.579168,-0.346836 -0.742595,-0.442564 -0.163289,-0.09572 -0.589403,-0.353331 -0.946691,-0.57239 -0.7745,-0.474898 -1.69585,-1.02145 -2.211478,-1.311881 l -0.373594,-0.210516 -0.350297,0 c -0.192726,2.83e-4 -0.44659,0.02329 -0.564272,0.05083 -0.221599,0.05224 -0.510126,0.222095 -0.510126,0.300527 0,0.139498 0.482665,0.765964 1.184176,1.537152 0.248567,0.273277 0.445245,0.50356 0.437058,0.511679 -0.0346,0.03459 -0.382208,-0.07265 -0.616371,-0.190608 -0.284857,-0.143452 -0.466994,-0.261346 -0.94916,-0.614607 -0.85555,-0.626821 -1.159045,-0.780014 -1.598217,-0.806487 -0.272292,-0.01623 -0.31606,-0.0092 -0.492479,0.08323 -0.360885,0.188703 -0.845808,0.829854 -0.916827,1.2122 -0.05226,0.282877 0.234872,0.678638 0.774014,1.065785 0.166604,0.119659 0.340692,0.237342 0.386863,0.261486 0.103916,0.05435 0.641929,0.170983 1.042841,0.225836 0.326012,0.04447 0.646235,0.142251 0.802322,0.244544 l 0.09862,0.06495 -0.159901,0.102786 -0.159967,0.102931 -0.296996,-0.05013 c -0.163361,-0.02754 -0.522552,-0.09509 -0.798226,-0.149876 -0.666146,-0.132366 -1.450251,-0.165406 -1.763416,-0.07441 -0.419832,0.12206 -0.737586,0.388206 -0.927837,0.777118 -0.09474,0.193574 -0.100811,0.233813 -0.08599,0.570344 0.01484,0.32587 0.02967,0.388206 0.149522,0.623643 0.177266,0.347331 0.357144,0.570695 0.932078,1.157347 0.50377,0.514008 0.551563,0.544434 0.920779,0.587497 0.222025,0.02612 0.47843,-0.05295 0.582346,-0.178607 0.05928,-0.07208 0.01411,-0.101938 -0.290149,-0.19089 -0.278857,-0.08154 -0.571402,-0.255698 -0.766032,-0.455979 -0.141762,-0.145851 -0.236638,-0.322482 -0.194425,-0.362015 0.04096,-0.03812 1.163207,0.140204 1.888648,0.300103 1.084633,0.239037 2.734313,0.783965 3.907551,1.290702 0.133137,0.0579 0.139281,0.05717 0.139281,-0.0099 0,-0.03883 -0.06706,-0.32481 -0.148531,-0.635997 -0.08161,-0.311186 -0.148465,-0.574649 -0.148465,-0.585521 0,-0.01129 0.154676,0.187362 0.343876,0.440588 0.44835,0.600417 0.841213,1.063807 1.34908,1.591582 0.226685,0.235507 0.452236,0.471155 0.501164,0.523608 0.152975,0.163783 0.958967,0.889154 1.444316,1.299739 1.071641,0.906661 2.827644,2.131568 4.227273,2.948784 0.94888,0.553896 1.34958,0.765964 1.8765,0.993001 0.3287,0.141545 0.64772,0.279559 0.709,0.306738 0.0614,0.02684 0.37034,0.157429 0.68683,0.289443 2.96579,1.237331 4.64838,2.134674 5.7695,3.076917 0.20212,0.169852 0.4084,0.340694 0.45846,0.379592 l 0.0909,0.07081 0.544,-0.281535 c 1.95297,-1.010649 4.06202,-1.794615 6.4202,-2.38656 1.14096,-0.286408 3.27366,-0.699181 3.32859,-0.644187 0.0297,0.02965 -0.0488,0.567096 -0.11592,0.794625 -0.048,0.164206 -0.10823,0.26537 -0.22754,0.384818 l -0.1618,0.162159 0.13096,0.134909 c 0.30511,0.314362 0.49438,0.752268 0.59858,1.384523 0.14605,0.886683 0.32601,1.224977 0.87722,1.64905 0.26276,0.202251 1.15608,0.561095 3.13361,1.25893 0.32671,0.115286 0.72762,0.258171 0.89105,0.317544 0.35354,0.12841 2.62828,0.880891 3.02581,1.000976 0.15312,0.04589 0.34083,0.106811 0.41722,0.13441 0.0763,0.02757 0.3018,0.09926 0.50123,0.158982 0.19929,0.06 0.64645,0.195057 0.99357,0.30081 1.773,0.540127 2.053,0.617075 2.43188,0.668261 0.6893,0.09312 1.205,0.236638 1.75699,0.489229 0.1803,0.08245 0.41418,0.171193 0.51979,0.197242 0.10569,0.02613 0.57635,0.149949 1.04602,0.275464 1.50603,0.402329 1.64791,0.438758 3.04444,0.78199 0.75551,0.185669 1.46558,0.361805 1.57782,0.391452 0.50836,0.133996 0.48357,0.131804 0.51704,0.04307 0.017,-0.04445 0.0522,-0.284851 0.0791,-0.533845 l 0.0487,-0.4528 0.20678,-0.07602 c 0.55093,-0.202678 2.38126,-0.72848 3.15832,-0.907229 0.91816,-0.211219 1.3908,-0.258873 2.5989,-0.261907 1.07997,-0.007 1.34492,0.01766 2.16927,0.1695 1.47771,0.271439 2.8904,0.976266 3.74581,1.868809 0.66749,0.69643 1.20937,2.072695 1.32338,3.361207 0.0227,0.261769 0.0381,2.29281 0.0389,5.25331 0,5.324899 -0.0119,5.029663 0.23763,5.569231 0.24483,0.530031 0.56886,0.89861 0.96286,1.095504 l 0.22817,0.114013 -2.80287,-0.01129 c -2.63809,-0.01057 -2.8138,-0.01622 -2.98846,-0.08154 -0.40769,-0.153474 -0.60882,-0.384178 -0.74959,-0.859503 -0.0592,-0.200984 -0.0671,-0.532853 -0.0847,-3.839913 l -0.0197,-3.619793 -0.31556,0.007 c -1.02682,0.01129 -2.41276,0.686399 -3.13721,1.527336 -0.42463,0.492971 -0.64624,0.923182 -0.80833,1.569135 -0.0642,0.255979 -0.0789,0.424349 -0.078,0.89106 0,0.500731 0.0142,0.622444 0.098,0.937015 0.17641,0.658518 0.51118,1.138707 0.8679,1.24496 0.5438,0.161943 1.33363,0.152273 2.03647,-0.02469 0.24511,-0.06212 0.57853,-0.153973 0.74113,-0.204943 0.1625,-0.05081 0.29946,-0.08867 0.30419,-0.08393 0.007,0.007 -0.007,0.07921 -0.0262,0.165403 -0.0197,0.0862 -0.0685,0.411501 -0.10885,0.722972 -0.11182,0.858866 -0.18828,1.343368 -0.2163,1.369418 -0.0282,0.02613 -1.40049,0.481036 -1.7145,0.567942 -0.6019,0.166604 -1.67763,0.251673 -2.56192,0.202613 -1.39264,-0.07737 -2.64713,-0.55912 -3.46526,-1.330941 -0.5719,-0.539425 -0.90808,-1.117109 -1.12445,-1.932069 -0.13145,-0.495019 -0.16527,-1.459357 -0.0699,-1.992354 0.35482,-1.981693 1.9795,-3.545176 4.80813,-4.626847 1.2103,-0.462826 2.74654,-0.853148 4.12111,-1.047219 0.23486,-0.03315 0.48125,-0.06848 0.54761,-0.07837 l 0.12064,-0.01838 -0.007,-0.917253 c -0.007,-0.504407 -0.0225,-1.024768 -0.0459,-1.156355 -0.0416,-0.236638 -0.0437,-0.239323 -0.17238,-0.251816 -0.12178,-0.01201 -2.05003,-0.248567 -2.34315,-0.287608 -0.23247,-0.03105 -1.70764,-0.244825 -2.05638,-0.298053 -0.18377,-0.02823 -0.50956,-0.0776 -0.72396,-0.109922 -0.2144,-0.03249 -0.89939,-0.143804 -1.52226,-0.247648 -1.24722,-0.207904 -1.24524,-0.207694 -1.3644,-0.167097 -0.06,0.02048 -0.0835,0.01411 -0.0835,-0.02258 0,-0.05081 -0.048,-0.06284 -0.77966,-0.196894 -1.02223,-0.187362 -1.64136,-0.305116 -2.35226,-0.447575 -0.44623,-0.08945 -0.82645,-0.153264 -0.84503,-0.141828 -0.0183,0.01129 0.0649,0.207622 0.18596,0.436001 0.62675,1.185582 1.03683,2.380695 1.17096,3.412243 0.0809,0.6223 0.11345,2.059776 0.0614,2.701981 -0.13532,1.664227 -0.54302,3.147231 -1.21431,4.417105 -1.26917,2.400822 -3.31038,3.848178 -5.86135,4.156118 -1.22908,0.148461 -1.95226,0.130247 -2.80301,-0.0706 -0.36794,-0.08669 -0.97591,-0.266219 -1.01467,-0.299609 -0.017,-0.01412 -0.048,-0.09947 -0.0685,-0.188707 -0.0924,-0.40063 -0.39668,-1.943709 -0.3856,-1.954863 0.007,-0.007 0.11147,0.02967 0.23262,0.08026 0.3169,0.133425 0.91111,0.304198 1.24629,0.358279 0.36088,0.0579 1.14507,0.02685 1.45604,-0.0579 1.90447,-0.521279 2.93121,-2.633226 3.01353,-6.198733 0.0444,-1.928327 -0.24793,-3.557957 -0.85944,-4.789361 -0.45357,-0.913434 -0.96589,-1.35791 -1.95282,-1.694295 -0.29749,-0.101309 -0.40013,-0.118746 -0.68654,-0.116271 -0.42893,0.007 -0.87892,0.08832 -1.36144,0.255834 -0.42725,0.148393 -0.99688,0.43134 -1.26267,0.627243 l -0.17636,0.129972 0,10.803621 0,10.803491 -2.56177,0 -2.56171,0 0,-12.400369 z M 91.481613,74.488083 c 1.075034,-0.142179 2.385644,-0.493322 3.389725,-0.908073 0.578748,-0.239037 0.762296,-0.343166 1.328472,-0.753821 0.546764,-0.396536 0.8283,-0.561942 1.177611,-0.691838 0.300102,-0.111683 0.784952,-0.217365 1.205913,-0.263111 0.203741,-0.02259 0.383265,-0.05295 0.398942,-0.06848 0.01556,-0.01553 -0.109286,-0.130108 -0.277728,-0.254357 -0.913085,-0.673695 -2.396089,-1.840361 -3.255946,-2.561356 -0.240308,-0.20162 -0.327634,-0.255627 -0.359612,-0.222799 -0.02331,0.024 -0.07957,0.151992 -0.1251,0.284713 -0.04589,0.13272 -0.135119,0.347754 -0.199081,0.477861 -0.276166,0.562296 -0.991654,0.969704 -1.861181,1.059927 -0.232404,0.02399 -0.731868,-0.04447 -1.000838,-0.138087 l -0.146909,-0.05083 0.174934,-0.02399 c 0.212073,-0.02895 0.418703,-0.130886 0.553191,-0.27257 0.1114,-0.117401 0.230284,-0.370346 0.186654,-0.397313 -0.01556,-0.0092 -0.178185,0.04306 -0.361661,0.117683 -0.332295,0.134485 -0.335755,0.134978 -0.890429,0.134837 -0.614606,-2.12e-4 -0.901361,-0.04731 -1.165676,-0.191384 -0.09396,-0.05153 -0.279488,-0.152488 -0.41221,-0.224849 -0.193711,-0.105611 -0.639736,-0.36505 -1.225187,-0.712593 -0.275043,-0.163288 -1.507924,-0.920639 -2.727538,-1.675591 -0.244332,-0.151216 -0.457461,-0.280548 -0.473624,-0.287395 -0.01622,-0.007 -0.387219,-0.232472 -0.82442,-0.501301 -0.437269,-0.268757 -0.850608,-0.521702 -0.918591,-0.561942 -0.06778,-0.04024 -0.198869,-0.117683 -0.290713,-0.171971 -1.12085,-0.662118 -1.37916,-0.813757 -1.522257,-0.893106 -0.09185,-0.05083 -0.359121,-0.199999 -0.593993,-0.331095 l -0.426963,-0.238402 -0.359756,-0.0127 c -0.346273,-0.0127 -0.368087,-0.0085 -0.587003,0.108575 -0.350933,0.187009 -0.890989,0.80098 -0.890989,1.012979 0,0.02895 0.07934,0.111471 0.176347,0.182137 0.206422,0.15044 0.742667,0.561024 1.215871,0.930876 0.540834,0.422799 2.038241,1.675238 2.46471,2.061467 0.92417,0.837054 1.963974,1.811911 2.621646,2.458074 0.96808,0.950995 1.293522,1.161087 3.916933,2.529587 0.578249,0.301655 1.073833,0.59724 1.187281,0.708146 0.113448,0.110906 0.144507,0.224989 0.0732,0.269041 -0.02613,0.01623 -0.02469,0.04095 0.007,0.07639 0.05646,0.06778 0.290785,0.06706 0.82138,-0.007 z m -3.928862,-7.91936 c 0.0099,-0.01624 -0.218709,-0.244616 -0.508365,-0.507372 -0.671011,-0.60896 -1.70086,-1.648553 -2.060688,-2.080388 -0.88167,-1.058088 -1.642056,-1.786001 -2.53128,-2.422775 -0.910968,-0.652375 -2.203507,-1.07242 -3.207873,-1.042418 -0.380369,0.01129 -0.434305,0.02259 -0.662117,0.134556 -0.679272,0.334765 -1.068537,1.242909 -1.06755,2.490831 0,0.415314 0.01059,0.489582 0.08825,0.654139 0.22993,0.485558 0.76794,0.689792 1.128544,0.428517 0.148391,-0.107447 0.212139,-0.197881 0.460848,-0.653011 0.06778,-0.123472 0.139357,-0.249838 0.159758,-0.28076 0.06706,-0.101379 0.694804,-0.483721 1.000484,-0.609169 0.265087,-0.108718 0.332718,-0.121568 0.59604,-0.113096 0.21807,0.007 0.344366,0.03176 0.475321,0.09445 0.162582,0.07752 0.177338,0.09517 0.16703,0.200634 l -0.01129,0.115636 -0.334129,0.01835 -0.3342,0.01836 0.259932,0.122695 c 0.142958,0.06778 0.36011,0.167242 0.482663,0.221883 0.381994,0.170277 2.202165,1.095999 2.7466,1.396807 0.583967,0.322764 0.974645,0.549801 1.782824,1.036205 0.306318,0.184326 0.598725,0.357992 0.649767,0.386088 0.05081,0.02824 0.218066,0.13279 0.371264,0.232755 0.295158,0.192585 0.31916,0.203457 0.348032,0.156652 z M 76.704016,65.475264 c 0.03177,-0.02611 0.111118,-0.126084 0.17656,-0.223506 l 0.118813,-0.177125 -0.09128,-0.194139 c -0.202045,-0.429644 -0.259085,-0.627031 -0.324246,-1.122331 -0.01623,-0.122554 -0.05718,-0.322129 -0.09156,-0.443482 -0.0579,-0.205081 -0.0579,-0.254498 -0.007,-0.691062 0.09954,-0.785307 0.07519,-0.888872 -0.208328,-0.888872 l -0.145074,0 -0.292761,0.603312 c -0.415173,0.855903 -0.482521,1.082304 -0.481463,1.61982 0,0.351638 0.01482,0.461836 0.07539,0.595828 0.14338,0.316057 0.515985,0.681391 0.907085,0.889295 0.168512,0.08965 0.276383,0.09926 0.359545,0.03248 z m 35.579844,34.47565 c -1.34591,-0.08104 -2.65179,-0.32982 -3.96819,-0.756079 l -0.57021,-0.184611 -0.11499,-0.399074 c -0.0635,-0.219622 -0.15814,-0.591313 -0.2108,-0.826186 -0.0529,-0.2348 -0.13858,-0.590814 -0.19089,-0.791096 -0.0523,-0.200276 -0.0872,-0.371895 -0.0778,-0.381355 0.009,-0.0092 0.23931,0.06778 0.51083,0.171547 1.17591,0.449624 2.08363,0.708569 3.01027,0.858584 0.72099,0.116769 1.97662,0.120511 2.48427,0.0077 1.10073,-0.245179 1.91279,-0.847856 2.19447,-1.628645 0.10864,-0.301159 0.11718,-0.84185 0.0176,-1.130233 -0.15354,-0.445533 -0.48471,-0.880897 -0.88992,-1.169773 -0.25521,-0.181926 -1.12226,-0.640024 -1.65653,-0.875107 -0.194,-0.08535 -0.49156,-0.220331 -0.66121,-0.299963 -0.16963,-0.07963 -0.31612,-0.144789 -0.32559,-0.144789 -0.0381,0 -1.35232,-0.664801 -1.61204,-0.815452 -0.99639,-0.577757 -1.99229,-1.422292 -2.40987,-2.043324 -0.50758,-0.754812 -0.70863,-1.994469 -0.50101,-3.088777 0.43805,-2.30961 2.64698,-3.949764 5.74248,-4.26377 0.57033,-0.0579 2.03096,-0.02685 2.53318,0.05364 0.81312,0.130458 1.73764,0.397524 2.41557,0.697836 l 0.33653,0.149029 0.15827,0.580652 c 0.28027,1.028647 0.49242,1.868245 0.47624,1.88448 -0.008,0.0085 -0.16441,-0.05298 -0.34605,-0.136602 -1.15213,-0.531586 -2.06691,-0.835147 -2.96651,-0.984315 -0.44807,-0.07427 -1.38446,-0.08563 -1.7262,-0.02048 -1.08514,0.205574 -1.74055,0.730949 -1.89501,1.519078 -0.18305,0.934192 0.39174,1.570192 2.20457,2.439647 0.30963,0.148537 0.75509,0.357498 0.98988,0.464447 2.60571,1.186507 3.87268,2.14527 4.58281,3.467952 0.31309,0.583187 0.46641,1.262247 0.46641,2.065134 0,1.49543 -0.54965,2.839363 -1.54815,3.784919 -0.76866,0.728059 -1.83584,1.252227 -3.12979,1.537577 -0.94635,0.208613 -2.34202,0.316975 -3.32288,0.257889 z m 64.055,-0.341821 c -0.53519,-0.176917 -0.89488,-0.527069 -1.06734,-1.03896 -0.34931,-1.036985 0.20741,-2.082996 1.22857,-2.308271 0.28479,-0.06283 0.73971,-0.02967 1.00995,0.0742 0.4043,0.154958 0.79935,0.556578 0.95396,0.969845 0.0692,0.184395 0.0773,0.273277 0.0664,0.709134 -0.012,0.482237 -0.0163,0.506383 -0.13873,0.747256 -0.16703,0.328835 -0.43218,0.588484 -0.77288,0.75686 -0.25506,0.126079 -0.30117,0.136176 -0.67116,0.147612 -0.31394,0.0099 -0.44149,-0.007 -0.60888,-0.0579 z m 1.09169,-0.350579 c 0.51704,-0.252945 0.80387,-0.780086 0.76131,-1.399281 -0.0374,-0.549515 -0.30985,-0.983822 -0.75629,-1.206904 -0.19019,-0.09495 -0.25761,-0.108438 -0.55087,-0.109706 -0.2852,0 -0.36462,0.01267 -0.5428,0.09644 -0.29369,0.137732 -0.49482,0.333989 -0.63558,0.620252 -0.11741,0.238542 -0.12101,0.260147 -0.11995,0.710689 0,0.53716 0.0529,0.696076 0.31719,0.983113 0.29783,0.32319 0.56858,0.433389 1.0223,0.416379 0.23571,-0.0092 0.34521,-0.03249 0.50469,-0.11098 z m -1.23268,-1.269388 0,-0.946684 0.52962,0 c 0.442,0 0.55107,0.01129 0.659,0.06848 0.23001,0.121076 0.32446,0.446662 0.20939,0.721987 -0.0487,0.116974 -0.1234,0.172605 -0.33285,0.248567 -0.0692,0.02469 -0.0948,0.05364 -0.0762,0.08429 0.0155,0.02541 0.13308,0.209387 0.2615,0.408468 l 0.23346,0.362015 -0.18264,0 -0.1827,0 -0.2473,-0.410444 -0.24723,-0.410444 -0.13561,0.01129 -0.13569,0.01129 -0.0105,0.399146 -0.0105,0.399079 -0.16583,0 -0.16583,0 0,-0.94669 z m 1.0374,-0.220817 c 0.0614,-0.0558 0.0773,-0.106883 0.0692,-0.221815 -0.014,-0.195759 -0.10822,-0.242848 -0.48449,-0.243623 l -0.28768,0 0,0.282238 0,0.282311 0.31168,-0.01273 c 0.24448,-0.01057 0.32898,-0.02895 0.3916,-0.08549 z M 56.419171,99.502138 c -0.03106,-0.03598 -1.590099,-2.362273 -3.465335,-5.169942 -1.875165,-2.807734 -3.686228,-5.518183 -4.024522,-6.023155 l -0.615102,-0.918311 -0.0092,6.069609 -0.0092,6.069614 -2.524505,0 -2.524504,0 0,-11.750666 0,-11.750662 2.524504,0 2.524505,0 0.0092,5.648722 0.0092,5.648785 0.37691,-0.460278 c 0.20734,-0.25309 0.783684,-0.953683 1.28089,-1.55678 0.497136,-0.603098 1.295503,-1.572096 1.774143,-2.153385 0.478568,-0.581282 1.02265,-1.240575 1.209093,-1.465213 0.574085,-0.691841 2.585218,-3.128172 3.654672,-4.427414 l 1.016156,-1.234437 2.282008,0 c 2.160794,0 2.279396,0.007 2.231109,0.06424 -0.178749,0.226046 -3.226579,3.856083 -5.135984,6.117264 -0.18969,0.224565 -1.073478,1.275454 -1.963973,2.335238 l -1.619044,1.926909 0.123402,0.170773 c 0.06778,0.09389 0.680614,0.939279 1.361721,1.878624 0.681108,0.939345 1.607466,2.217412 2.058503,2.84021 0.451036,0.622865 1.412691,1.948724 2.136933,2.946379 0.724242,0.997733 1.43274,1.975128 1.574497,2.17195 0.141757,0.196894 0.697275,0.963773 1.234508,1.704182 0.537164,0.740553 0.976693,1.354522 0.976693,1.364474 0,0.0099 -1.442483,0.01766 -3.205683,0.01766 -3.007026,0 -3.209213,-0.007 -3.261595,-0.06495 z m 16.219376,0.04024 c -0.01341,-0.01339 -0.02471,-3.785417 -0.02471,-8.381692 l 0,-8.357055 2.515327,-0.418 c 1.383465,-0.229929 2.536223,-0.417783 2.561779,-0.417363 0.036,0 0.04588,0.249348 0.04588,1.118521 0,0.879479 0.0099,1.113721 0.04659,1.098897 0.02611,-0.01057 0.305397,-0.179878 0.621949,-0.376628 0.714499,-0.444332 1.856455,-1.013055 2.385147,-1.187846 1.089505,-0.360248 2.474453,-0.477721 3.519904,-0.298551 1.610151,0.276028 2.846636,1.40387 3.44458,3.142077 0.172256,0.500738 0.280479,0.948595 0.388064,1.606831 0.07829,0.478706 0.07949,0.563071 0.0915,6.490287 l 0.01201,6.005232 -2.575895,0 -2.5759,0 -0.02329,-5.48543 c -0.01977,-4.613009 -0.03248,-5.542125 -0.07922,-5.841446 C 82.809561,87.07432 82.475996,86.2852 82.02037,85.941258 81.777874,85.758131 81.443462,85.599575 81.126558,85.517474 80.313012,85.306675 79.122627,85.701443 78.02465,86.546266 l -0.287678,0.221388 0,6.399717 0,6.399717 -2.536999,0 c -1.395396,0 -2.548154,-0.01129 -2.56178,-0.02469 z m 85.354793,0 c -0.0134,-0.01339 -0.0247,-3.785417 -0.0247,-8.381692 l 0,-8.357055 2.51539,-0.418 c 1.38346,-0.229929 2.53615,-0.417783 2.56171,-0.417363 0.036,0 0.0466,0.252663 0.0466,1.1349 l 0,1.134119 0.15778,-0.108078 c 0.26092,-0.178611 1.13187,-0.6881 1.58714,-0.928336 1.1087,-0.584886 2.01472,-0.852301 3.17701,-0.937651 1.70116,-0.124884 2.925,0.254988 3.8892,1.207186 0.82513,0.814605 1.3289,1.940183 1.59504,3.563886 0.0787,0.479486 0.0797,0.555587 0.0914,6.508996 l 0.012,6.023798 -2.58005,0 -2.58,0 -0.0127,-5.596836 c -0.0112,-5.148547 -0.0177,-5.627818 -0.0782,-5.983267 -0.11776,-0.692827 -0.37698,-1.362925 -0.68246,-1.764546 -0.28273,-0.371685 -0.95586,-0.71386 -1.48257,-0.753676 -0.82266,-0.06212 -1.90926,0.36745 -2.87968,1.138779 l -0.21319,0.169362 0,6.395128 0,6.395056 -2.537,0 c -1.39533,0 -2.54816,-0.01129 -2.56178,-0.02469 z m -93.593742,-8.382821 0.0092,-8.370473 0.120507,-0.0212 c 0.06636,-0.01129 1.089505,-0.178959 2.27389,-0.372183 1.184314,-0.193146 2.243815,-0.368225 2.354439,-0.389049 0.110624,-0.0212 0.240096,-0.03742 0.287679,-0.03742 l 0.08669,0 0,8.780418 0,8.780556 -2.571099,0 -2.570956,0 0.0092,-8.370466 z m 2.143923,-11.308599 c -1.18255,-0.182773 -2.088504,-0.960668 -2.400327,-2.060827 -0.114011,-0.402187 -0.112812,-1.085978 0.007,-1.520142 0.218707,-0.822793 0.71563,-1.44686 1.432388,-1.79892 0.91591,-0.449908 2.045724,-0.414115 2.877554,0.0912 0.599923,0.364415 1.076162,0.995188 1.304397,1.727902 0.123049,0.394913 0.123191,1.048558 0,1.446295 -0.161452,0.522342 -0.393711,0.907931 -0.785589,1.30369 -0.30808,0.311189 -0.398584,0.37861 -0.705464,0.525802 -0.193644,0.09283 -0.460778,0.194701 -0.593427,0.226397 -0.311963,0.07455 -0.849338,0.10236 -1.132427,0.05862 z m 43.419919,-4.101047 c -2.27769,-1.397162 -3.79438,-2.229556 -5.43912,-2.98486 -3.98583,-1.830408 -7.247499,-4.142559 -9.345889,-6.62513 -0.342669,-0.405361 -0.374016,-0.497347 -0.08429,-0.247226 0.06212,0.05365 0.77945,0.529892 1.874882,1.244673 0.364837,0.238051 0.948456,0.595194 1.68985,1.034229 0.36724,0.217434 0.69276,0.411008 0.723399,0.430211 0.329889,0.206491 1.854828,1.022226 2.617478,1.400196 0.99759,0.494453 1.20288,0.589827 1.80062,0.836983 0.19399,0.08027 0.40281,0.168159 0.46409,0.19555 0.20889,0.09305 1.37266,0.494028 1.76355,0.607617 0.44115,0.128203 1.34026,0.313869 1.835,0.379029 0.21835,0.02894 0.64891,0.0367 1.26232,0.02401 0.98283,-0.02118 1.45675,-0.07631 2.28214,-0.266428 0.2238,-0.05154 0.41751,-0.09368 0.4305,-0.09368 0.0346,0 -0.0155,0.324387 -0.0826,0.538363 -0.13956,0.442777 -0.47178,0.763634 -1.2076,1.16603 -0.15849,0.0867 -0.27865,0.173101 -0.267,0.19195 0.0565,0.09078 0.77797,0 1.27913,-0.159053 0.44997,-0.143803 0.85132,-0.343448 1.31287,-0.653151 0.64532,-0.432964 1.00754,-0.977822 1.24629,-1.874388 0.11931,-0.448001 0.16118,-0.978599 0.14458,-1.83189 -0.0142,-0.723182 -0.007,-0.861621 0.0614,-0.758127 0.0261,0.04307 0.83197,0.667058 1.89339,1.467544 1.28314,0.967656 1.32536,1.000907 2.15458,1.696205 0.62455,0.523749 0.93249,0.801473 0.90863,0.819476 -0.0103,0.007 -0.2348,0.08506 -0.50031,0.172676 -0.26544,0.08754 -0.53272,0.180584 -0.59399,0.206775 -0.0614,0.02612 -0.37867,0.152204 -0.70539,0.280266 -0.53067,0.208045 -0.72425,0.288595 -1.11387,0.463602 -0.0614,0.02824 -0.33687,0.149381 -0.61255,0.270805 -1.01637,0.447648 -3.26075,1.549225 -4.47387,2.19574 -0.30624,0.163218 -0.57359,0.296079 -0.59392,0.295161 -0.0205,0 -0.34628,-0.191173 -0.72403,-0.422939 z m 19.3431,-3.844363 c -1.15728,-0.08958 -2.65518,-0.336248 -3.2491,-0.534975 -0.32248,-0.107941 -1.05309,-0.390677 -1.31287,-0.508148 -0.0893,-0.04024 -0.24588,-0.106246 -0.3479,-0.146486 -0.10205,-0.04024 -0.48005,-0.222448 -0.84002,-0.404867 -0.74683,-0.378606 -1.15621,-0.666848 -2.08272,-1.466486 -0.3313,-0.285842 -0.63832,-0.539705 -0.68223,-0.56406 -0.0964,-0.05365 -1.90537,-1.875872 -2.40667,-2.424611 -2.43952,-2.670144 -4.86024,-5.992381 -7.04327,-9.666396 -0.22888,-0.385241 -0.46671,-0.794555 -0.52856,-0.909626 -0.0622,-0.115142 -0.19442,-0.358557 -0.29473,-0.540975 -0.10024,-0.182279 -0.16852,-0.315987 -0.15178,-0.296997 2.09937,2.374418 5.96795,6.403036 7.29134,7.592998 0.20925,0.188137 0.46409,0.420045 0.56617,0.515349 0.52531,0.490217 1.82195,1.55946 2.19045,1.806263 1.17556,0.787355 3.11328,1.785861 5.75468,2.965658 0.63112,0.281817 1.90115,0.821593 2.22765,0.94669 0.57479,0.220329 1.22554,0.464024 1.63353,0.611853 0.20422,0.07398 0.45484,0.165899 0.55692,0.204303 0.10215,0.03812 0.33603,0.122343 0.5198,0.186584 0.18375,0.06424 0.4009,0.142534 0.48266,0.173878 0.43727,0.167807 1.31364,0.382559 2.22758,0.545988 1.33355,0.23833 2.60314,0.394136 5.47624,0.671789 1.76829,0.170842 2.25335,0.230565 2.2847,0.281253 0.0522,0.08465 -1.13793,0.343096 -2.30325,0.50003 -1.29092,0.173878 -1.56067,0.204657 -3.26718,0.373311 -0.7272,0.0718 -6.01285,0.14098 -6.70144,0.08768 z M 75.472544,67.799559 c -0.564061,-0.112954 -0.970623,-0.372675 -1.399561,-0.893742 -0.251887,-0.306033 -0.407055,-0.628444 -0.475604,-0.9882 -0.07378,-0.387358 -0.07427,-1.224271 0,-1.432459 0.09608,-0.272288 0.406773,-0.659788 0.583332,-0.727559 0.04307,-0.01623 0.05083,0.09898 0.05013,0.677295 0,0.795473 0.02541,0.948031 0.250686,1.42081 0.319305,0.670448 1.002177,1.071503 1.831394,1.075527 0.328695,0.007 0.619479,-0.05153 0.803592,-0.147757 0.183338,-0.09559 0.236002,-0.0929 0.307375,0.01624 0.07772,0.118601 0.02118,0.339424 -0.121426,0.476168 -0.298972,0.286196 -1.416997,0.606418 -1.829065,0.52382 z m 70.151286,-0.817993 c -6.48605,-0.09481 -12.54719,-0.660353 -16.81852,-1.569274 -0.63692,-0.135543 -2.06472,-0.486476 -2.45031,-0.602251 -0.7769,-0.23339 -1.8225,-0.590958 -2.15339,-0.736315 -0.041,-0.01765 -0.19956,-0.08556 -0.35276,-0.150298 -0.41447,-0.174937 -1.04495,-0.515136 -1.85632,-1.001401 -1.32049,-0.79159 -1.58847,-0.971397 -2.58041,-1.731643 -0.48739,-0.373523 -1.45208,-1.157418 -1.63676,-1.329883 -0.0219,-0.02118 -0.1381,-0.121213 -0.25746,-0.223364 -1.35615,-1.159749 -2.35056,-2.089566 -4.00963,-3.748847 -1.36787,-1.368005 -1.71371,-1.724372 -2.39468,-2.467394 -0.47596,-0.519232 -0.4785,-0.522055 -0.59322,-0.652516 l -0.0928,-0.105541 0.12996,0.07554 c 0.0714,0.04165 0.297,0.176278 0.50123,0.299395 0.20417,0.123191 0.43806,0.261065 0.51973,0.306387 0.0817,0.04518 0.41588,0.236849 0.74253,0.42541 1.24764,0.720148 2.9394,1.612125 3.69499,1.948372 0.11182,0.04941 0.33702,0.151852 0.50037,0.226896 0.28387,0.13046 1.12403,0.471366 1.59645,0.647926 0.97353,0.36364 1.59513,0.595688 2.02342,0.755305 1.57048,0.58545 3.63137,1.397373 4.49237,1.769766 1.7274,0.747256 2.26238,0.98128 2.54314,1.112306 0.18383,0.08584 0.63494,0.295656 1.00245,0.466214 0.67165,0.311751 4.4935,2.217061 5.29059,2.637529 0.2348,0.123825 0.62746,0.331023 0.8725,0.460284 1.40465,0.741326 2.18571,1.036417 3.87973,1.465427 3.28629,0.832324 7.18954,1.236767 14.01544,1.452437 0.69425,0.02189 1.27581,0.05295 1.29226,0.06918 0.13661,0.133709 -4.46858,0.250473 -7.90086,0.20028 z m -6.66424,-5.532236 c -0.39195,-0.01836 -1.38304,-0.122556 -1.90735,-0.200563 -2.32507,-0.345778 -4.38781,-0.965115 -6.72467,-2.019251 -0.12256,-0.05507 -0.37318,-0.16816 -0.55693,-0.250898 -0.18377,-0.08274 -0.69509,-0.322622 -1.13618,-0.533068 -1.0249,-0.488806 -1.43054,-0.679626 -1.98245,-0.932428 -0.24505,-0.112178 -0.55115,-0.25245 -0.6802,-0.311611 -0.12898,-0.0593 -0.24066,-0.107517 -0.24793,-0.107517 -0.007,0 -0.12737,-0.05153 -0.26665,-0.114506 -0.4187,-0.189126 -0.45752,-0.205575 -0.95861,-0.405926 -0.26545,-0.106175 -0.64136,-0.256617 -0.83537,-0.334271 -0.6912,-0.276735 -2.91709,-1.00246 -5.10491,-1.664296 -0.20417,-0.06142 -0.70539,-0.21574 -1.11379,-0.342106 -0.40846,-0.126437 -0.86791,-0.26784 -1.02102,-0.314293 -1.03897,-0.315209 -2.14181,-0.786577 -3.06295,-1.309198 -0.34042,-0.19315 -1.70108,-1.012695 -2.06055,-1.241143 -0.47892,-0.304409 -1.18805,-0.776836 -1.18805,-0.791521 0,-0.0085 0.14613,0.03671 0.32481,0.09982 0.88893,0.31415 2.54462,0.775071 3.24924,0.904543 0.16816,0.03106 0.91549,0.138933 1.66083,0.240096 1.79723,0.24405 3.10354,0.42894 3.69415,0.522903 1.25844,0.20021 2.78351,0.453013 3.11863,0.517043 0.20416,0.03883 0.69706,0.131238 1.09529,0.20494 0.89819,0.166324 2.24452,0.452661 3.17427,0.675178 0.38799,0.0929 0.76391,0.181855 0.83536,0.197738 0.0715,0.01553 0.34718,0.08754 0.61263,0.159195 2.1992,0.593921 3.59622,1.133485 4.87787,1.883988 1.25012,0.732007 2.26521,1.470369 3.54456,2.578369 0.88257,0.76427 0.92437,0.799073 1.30482,1.08654 0.71026,0.536669 1.35819,0.767093 3.15577,1.122119 0.81672,0.161312 1.26337,0.2761 1.29903,0.333848 0.0536,0.08626 -0.90497,0.278994 -1.65441,0.332717 -0.50476,0.0367 -0.88506,0.03954 -1.44524,0.01341 z M 98.622592,60.696708 98.517258,60.58679 98.667489,60.387781 c 0.325376,-0.431059 0.520006,-0.911885 0.701932,-1.734538 0.01129,-0.05083 0.03952,-0.343378 0.06353,-0.649694 0.04162,-0.541892 0.04517,-0.557211 0.1299,-0.569283 0.14988,-0.02118 0.26382,0.02754 0.439449,0.189973 l 0.16979,0.15651 -0.0219,0.594064 c -0.0261,0.717393 -0.0804,0.974786 -0.291069,1.390384 -0.28047,0.553399 -0.506661,0.848419 -0.744146,0.97062 -0.205153,0.105542 -0.365685,0.09269 -0.49198,-0.03954 z m 4.356598,-3.996567 c -0.0184,-0.04307 -0.55354,-0.512879 -1.0093,-0.885766 -1.13335,-0.926992 -2.494012,-1.706864 -3.590009,-2.057513 -0.488737,-0.156299 -0.66226,-0.202752 -1.058163,-0.28316 -0.753112,-0.15284 -1.10002,-0.183973 -1.578024,-0.141403 -0.234734,0.02118 -0.489091,0.03036 -0.565191,0.02118 l -0.138369,-0.01695 0.174161,-0.228165 c 0.272994,-0.357427 0.998225,-1.060419 1.356852,-1.314987 0.38446,-0.272995 0.874188,-0.525799 1.357273,-0.700663 l 0.347755,-0.125873 0.413832,0.115071 c 0.649478,0.180514 1.273554,0.262051 2.213383,0.289231 l 0.8343,0.02399 0.0664,0.179808 c 0.0367,0.09891 0.0706,0.257603 0.0753,0.352696 l 0.008,0.172889 -0.64968,0 c -0.73534,0 -0.69884,-0.02048 -0.55553,0.307233 0.0756,0.172678 0.1515,0.215459 1.11196,0.627243 0.70645,0.302856 1.20493,0.569708 1.57894,0.845173 0.18433,0.135826 0.64963,0.598935 0.73935,0.735819 0.06,0.09135 0.17741,0.501512 0.39463,1.375982 0.0395,0.159547 0.072,0.301374 0.072,0.31521 0,0.01413 -0.3049,-0.276665 -0.6775,-0.645526 -0.7097,-0.702217 -1.12149,-1.076304 -1.49444,-1.357346 -0.59237,-0.446447 -1.70518,-1.107436 -1.76448,-1.048135 -0.0191,0.01906 0.24921,0.319728 0.64299,0.719795 1.00324,1.019332 1.38763,1.494229 1.67849,2.073609 0.11648,0.232048 0.13194,0.291983 0.10998,0.425268 -0.0276,0.169996 -0.0738,0.277371 -0.0959,0.225413 z m 29.52025,-3.232793 c -1.60273,-0.106528 -2.22729,-0.238401 -3.35993,-0.709133 -0.24504,-0.101866 -0.6377,-0.263605 -0.87249,-0.359475 -0.2348,-0.09594 -0.46035,-0.188985 -0.50117,-0.206845 -0.41319,-0.180937 -1.61423,-0.611924 -2.13439,-0.766035 -1.77682,-0.526362 -3.45199,-0.837831 -5.36527,-0.997659 -1.69472,-0.141545 -2.37732,-0.172395 -4.47387,-0.201904 -1.94787,-0.02754 -2.26647,-0.04024 -2.69556,-0.107517 -1.35523,-0.212776 -3.05023,-0.673554 -5.02676,-1.36631 -0.7784,-0.272853 -1.26931,-0.463038 -1.24856,-0.483722 0.009,-0.0092 0.34846,0.02612 0.75347,0.07837 1.83888,0.238543 2.37596,0.208469 3.88792,-0.217364 0.71443,-0.201198 2.76015,-0.705039 3.53127,-0.869669 3.41796,-0.729888 5.91888,-0.862468 7.7039,-0.408466 0.91605,0.233036 2.02688,0.71104 2.78451,1.198079 0.56031,0.360251 0.73822,0.482028 1.1135,0.762081 0.67504,0.503912 1.16801,0.931864 2.24643,1.950419 0.30632,0.289302 0.65718,0.617078 0.77973,0.728338 0.74747,0.678989 1.4307,1.047358 2.69167,1.450953 0.93816,0.300245 1.03953,0.34119 1.03953,0.419833 0,0.06565 -0.51062,0.128838 -0.85393,0.106036 z M 106.5663,47.530175 c -1.241,-0.125096 -2.00491,-0.266499 -2.7646,-0.511748 l -0.27709,-0.08945 0.27709,-0.02118 c 0.15242,-0.012 0.50264,-0.03106 0.77832,-0.04306 1.15078,-0.05013 2.60597,-0.247085 3.15005,-0.426257 0.41807,-0.137662 1.02379,-0.432046 1.6393,-0.796532 0.1124,-0.06636 0.43813,-0.25944 0.72404,-0.428658 1.18304,-0.700592 2.26775,-1.289784 2.78451,-1.512514 0.10209,-0.04448 0.36103,-0.157569 0.57542,-0.252169 1.2086,-0.533703 1.85011,-0.675178 2.88667,-0.636562 1.04756,0.03883 1.93383,0.301728 3.22071,0.954879 0.69057,0.350367 0.8898,0.470733 2.06056,1.244039 0.31655,0.209034 0.64707,0.416091 0.73455,0.460072 0.29593,0.148745 0.73101,0.300879 0.92684,0.324106 0.15511,0.01835 0.19499,0.0367 0.19499,0.0905 0,0.212352 -1.03734,0.192868 -2.00972,-0.03742 -1.03839,-0.246379 -2.4592,-0.445954 -3.3737,-0.47405 -1.31146,-0.04024 -2.57032,0.200632 -4.99811,0.956431 -0.46713,0.145428 -0.89953,0.278712 -0.96081,0.296078 -0.0614,0.01765 -0.4288,0.125872 -0.81672,0.241014 -1.64319,0.487534 -2.52218,0.642422 -3.7684,0.664024 -0.45944,0.0078 -0.90221,0.0078 -0.9839,0 z m -6.07024,-1.149158 c 0.0311,-0.007 0.28125,-0.04801 0.55693,-0.09142 1.50474,-0.239249 2.7072,-0.672072 3.62333,-1.304187 0.14486,-0.09989 0.47066,-0.349589 0.72402,-0.554741 1.60465,-1.299527 1.67263,-1.352333 2.20556,-1.711524 0.48202,-0.324881 1.10348,-0.651598 1.42935,-0.751492 0.11232,-0.03459 0.23762,-0.08182 0.2785,-0.105329 0.10081,-0.0579 0.98354,-0.07801 1.46648,-0.03318 1.37578,0.128131 2.84996,0.373451 3.02849,0.504054 0.0572,0.04236 -0.0465,0.05224 -0.69141,0.06706 -0.81044,0.01906 -0.98347,0.05083 -1.47256,0.2749 -0.22958,0.104976 -0.93871,0.545564 -1.81685,1.128615 -0.33702,0.223788 -0.62117,0.406914 -0.63141,0.406914 -0.0106,0 -0.10504,0.05647 -0.21059,0.125801 -0.89734,0.588345 -2.20449,1.213683 -3.02431,1.446719 -0.97395,0.276947 -2.47687,0.475604 -4.38887,0.580298 -0.64073,0.03529 -1.20394,0.04448 -1.07666,0.01765 z"
     id="path3338"
     inkscape:connector-curvature="0" />
</svg>
