<?xml version="1.0" encoding="UTF-8" standalone="no"?>
<!-- Created with Inkscape (http://www.inkscape.org/) -->

<svg
   xmlns:dc="http://purl.org/dc/elements/1.1/"
   xmlns:cc="http://creativecommons.org/ns#"
   xmlns:rdf="http://www.w3.org/1999/02/22-rdf-syntax-ns#"
   xmlns:svg="http://www.w3.org/2000/svg"
   xmlns="http://www.w3.org/2000/svg"
   xmlns:sodipodi="http://sodipodi.sourceforge.net/DTD/sodipodi-0.dtd"
   xmlns:inkscape="http://www.inkscape.org/namespaces/inkscape"
   id="svg2"
   version="1.1"
   inkscape:version="0.91 r13725"
   width="225"
   height="150"
   viewBox="0 0 225 150"
   sodipodi:docname="volvo-logo-alt.svg">
  <metadata
     id="metadata8">
    <rdf:RDF>
      <cc:Work
         rdf:about="">
        <dc:format>image/svg+xml</dc:format>
        <dc:type
           rdf:resource="http://purl.org/dc/dcmitype/StillImage" />
        <dc:title></dc:title>
      </cc:Work>
    </rdf:RDF>
  </metadata>
  <defs
     id="defs6" />
  <sodipodi:namedview
     pagecolor="#ffffff"
     bordercolor="#666666"
     borderopacity="1"
     objecttolerance="10"
     gridtolerance="10"
     guidetolerance="10"
     inkscape:pageopacity="0"
     inkscape:pageshadow="2"
     inkscape:window-width="1920"
     inkscape:window-height="1137"
     id="namedview4"
     showgrid="false"
     fit-margin-top="0"
     fit-margin-left="0"
     fit-margin-right="0"
     fit-margin-bottom="0"
     inkscape:zoom="2.4361481"
     inkscape:cx="164.03427"
     inkscape:cy="82.96959"
     inkscape:window-x="-8"
     inkscape:window-y="-8"
     inkscape:window-maximized="1"
     inkscape:current-layer="svg2" />
  <path
     style="fill:#ffffff"
     d="m 109.66205,119.45607 c -2.83213,-0.28747 -6.52577,-1.07839 -9.36897,-2.00617 C 78.584112,110.36589 66.818766,87.094221 73.887528,65.220135 80.866713,43.623251 104.0486,31.792629 125.93825,38.656625 c 2.8362,0.889354 7.65829,3.195829 10.01784,4.791675 1.02735,0.694829 1.9499,1.263324 2.05012,1.263324 0.10023,0 0.58323,-0.413739 1.07337,-0.919423 l 0.89114,-0.919423 -0.97303,-0.776834 c -0.53518,-0.427264 -1.79768,-1.27833 -2.80557,-1.891279 -1.42341,-0.865634 -1.85169,-1.274622 -1.9184,-1.831961 l -0.0859,-0.717515 9.78848,0 9.78848,0 0,9.77045 0,9.770459 -0.8142,0 c -0.44782,0 -0.81421,-0.108771 -0.81421,-0.241702 0,-0.347071 -3.14119,-5.082837 -3.53134,-5.32396 -0.19699,-0.121749 -0.68713,0.161882 -1.23418,0.714197 l -0.90742,0.916137 1.34902,2.035516 c 2.74592,4.14326 4.88205,9.293519 5.9906,14.443496 0.86335,4.010811 0.98872,10.870382 0.27497,15.044343 -1.04857,6.131972 -3.47848,12.173766 -6.89225,17.137045 -1.81223,2.63481 -6.22718,7.24069 -8.72823,9.10569 -7.24078,5.39937 -15.1944,8.19193 -24.03056,8.43726 -2.02364,0.0562 -4.16786,0.0526 -4.76495,-0.008 z m 6.49317,-10.15538 c 10.65165,-1.03569 20.36204,-7.71039 25.06553,-17.229494 1.10225,-2.230781 2.23079,-5.251936 2.23079,-5.971917 0,-0.357998 -3.57967,-0.406022 -30.26643,-0.406022 l -30.266451,0 0.161183,0.746356 c 0.56648,2.623058 2.576918,6.860543 4.620644,9.739126 5.175239,7.289311 13.629284,12.277241 22.223714,13.112081 3.09196,0.30035 3.2411,0.30059 6.23102,0.01 z M 106.2282,81.566616 c 1.63807,-0.779179 2.27105,-1.868533 2.1373,-3.67824 -0.1674,-2.264974 -1.52945,-3.415112 -4.42012,-3.732453 -3.12861,-0.343446 -5.459134,0.67363 -6.242267,2.724221 -1.516083,3.969818 3.840797,6.914643 8.525087,4.686472 z m -4.73144,-1.617733 c -0.55744,-1.077983 -0.39633,-3.262561 0.29713,-4.028832 0.62559,-0.691265 1.61159,-0.690086 2.30443,0.0027 0.41753,0.417535 0.5428,0.904673 0.5428,2.110827 0,1.99751 -0.49635,2.7744 -1.77253,2.7744 -0.76689,0 -1.0045,-0.148805 -1.37183,-0.859148 z m 37.66686,2.180796 c 1.10747,-0.236213 1.70346,-0.571269 2.59167,-1.456998 1.05317,-1.05024 1.15345,-1.269501 1.15345,-2.522135 0,-1.084026 -0.14915,-1.549153 -0.71083,-2.21667 -1.15415,-1.371622 -2.13497,-1.736984 -4.7172,-1.757162 -2.02898,-0.01581 -2.45525,0.06919 -3.53817,0.705845 -1.46416,0.860782 -2.02556,1.794354 -2.02556,3.368341 0,1.889226 1.48025,3.459446 3.66433,3.887044 1.72005,0.33675 1.96743,0.336176 3.58231,-0.0083 z m -3.19085,-2.165309 c -0.91009,-1.759914 -0.0707,-4.584371 1.36243,-4.584371 1.1336,0 1.59144,0.63069 1.69745,2.338291 0.13213,2.128195 -0.29159,2.927033 -1.61105,3.037382 -0.88451,0.07397 -1.04738,-0.01498 -1.44883,-0.791302 z M 94.524797,78.908222 c 1.55174,-2.866392 1.762173,-3.132196 2.578312,-3.256821 0.663445,-0.101305 0.910659,-0.290468 0.975398,-0.746355 0.08505,-0.59882 0.03344,-0.610656 -2.665042,-0.610656 -2.698438,0 -2.750085,0.01184 -2.665034,0.610656 0.05612,0.395316 0.305009,0.641625 0.70573,0.698472 0.609,0.0864 0.600467,0.122608 -0.527924,2.240376 -0.63081,1.183904 -1.227435,2.060362 -1.32583,1.947694 -0.0984,-0.112677 -0.677304,-1.121552 -1.286464,-2.241949 l -1.107558,-2.037085 0.864481,0.0016 c 0.690448,0.0012 0.881935,-0.121362 0.951203,-0.609081 0.08655,-0.609414 0.07864,-0.610656 -3.886348,-0.610656 -3.964988,0 -3.972896,8.28e-4 -3.886347,0.610656 0.06612,0.465551 0.29291,0.630604 0.954439,0.694627 0.760491,0.0736 0.991214,0.308367 1.867117,1.899811 0.549671,0.998708 1.361751,2.461946 1.804632,3.251638 l 0.805231,1.435805 2.077179,-0.07879 2.077181,-0.07885 1.689644,-3.121118 z m 25.179113,1.357005 c 0,-1.614442 -0.051,-1.77136 -0.60106,-1.849581 -0.44966,-0.06394 -0.64381,0.08485 -0.77076,0.59068 -0.25916,1.032578 -0.99417,1.530732 -2.52628,1.712185 l -1.39423,0.165128 0,-2.694666 0,-2.69467 0.74635,0.01069 c 0.5714,0.0082 0.76669,-0.132445 0.83309,-0.599955 0.0862,-0.606687 0.0636,-0.610651 -3.47925,-0.610651 -3.54281,0 -3.56541,0.0041 -3.47924,0.610651 0.0664,0.46751 0.26168,0.608146 0.83308,0.599955 l 0.74635,-0.01069 0,2.656865 0,2.656864 -0.8142,0 c -0.68938,0 -0.81421,0.104907 -0.81421,0.684239 l 0,0.68424 5.36018,-0.07359 5.36018,-0.07359 0,-1.764109 z m 9.25916,-1.298054 c 0.91296,-1.684186 1.70901,-3.111254 1.76902,-3.171252 0.06,-0.06 0.47327,-0.157298 0.91839,-0.216222 0.5803,-0.07682 0.83384,-0.273821 0.89603,-0.69622 0.0841,-0.571484 0.004,-0.589089 -2.66504,-0.589089 -2.69845,0 -2.75009,0.01184 -2.66504,0.610656 0.0617,0.434926 0.26245,0.604454 0.69738,0.589103 0.33585,-0.01184 0.61065,0.02273 0.61065,0.07687 0,0.159722 -1.32943,2.735924 -1.87369,3.630889 l -0.5017,0.824993 -1.18707,-2.119898 c -0.65289,-1.165947 -1.21801,-2.182176 -1.2558,-2.258277 -0.0378,-0.07611 0.32858,-0.137176 0.8142,-0.135702 0.71001,0.002 0.89993,-0.11693 0.96967,-0.60798 0.0866,-0.609406 0.0786,-0.610656 -3.88635,-0.610656 -3.96499,0 -3.97289,8.28e-4 -3.88634,0.610656 0.0674,0.474972 0.26702,0.612856 0.89816,0.620562 0.85343,0.01042 0.89429,0.06813 3.74077,5.283214 l 0.75259,1.378824 2.09712,-0.07916 2.09713,-0.07916 1.65992,-3.062164 z m 14.39353,-8.616436 c 0.21558,-0.561808 -1.06471,-4.117099 -2.44035,-6.776703 -3.41794,-6.608109 -9.76752,-12.229472 -16.69171,-14.777383 -4.19363,-1.543149 -5.67595,-1.778527 -11.16996,-1.77371 -4.64879,0.0041 -5.2221,0.06025 -7.73495,0.757905 -3.23999,0.899535 -7.425368,2.853468 -10.04186,4.688019 -3.727451,2.613495 -7.433915,6.810132 -9.688225,10.969466 -1.463579,2.700391 -2.867827,6.758693 -2.47467,7.151848 0.0968,0.0968 13.65491,0.175994 30.129155,0.175994 26.64168,0 29.97078,-0.04594 30.11257,-0.415436 z"
     id="path3338"
     inkscape:connector-curvature="0" />
</svg>
